  0
SECTION
  2
HEADER
  9
$ACADVER
  1
AC1009
  9
$DWGCODEPAGE
  3
ansi_1252
  9
$INSBASE
 10
0.0
 20
0.0
 30
0.0
  9
$EXTMIN
 10
281.7915267629
 20
-19.5591196394
 30
0.0
  9
$EXTMAX
 10
483.8981569633
 20
101.2006
 30
0.0
  9
$LIMMIN
 10
0.0
 20
0.0
  9
$LIMMAX
 10
420.0
 20
297.0
  9
$ORTHOMODE
 70
     0
  9
$REGENMODE
 70
     1
  9
$FILLMODE
 70
     1
  9
$QTEXTMODE
 70
     0
  9
$MIRRTEXT
 70
     1
  9
$DRAGMODE
 70
     2
  9
$LTSCALE
 40
1.0
  9
$OSMODE
 70
    37
  9
$ATTMODE
 70
     1
  9
$TEXTSIZE
 40
3.5
  9
$TRACEWID
 40
1.0
  9
$TEXTSTYLE
  7
STANDARD
  9
$CLAYER
  8
0
  9
$CELTYPE
  6
BYLAYER
  9
$CECOLOR
 62
   256
  9
$DIMSCALE
 40
1.0
  9
$DIMASZ
 40
3.302
  9
$DIMEXO
 40
1.0
  9
$DIMDLI
 40
3.75
  9
$DIMRND
 40
0.0
  9
$DIMDLE
 40
0.0
  9
$DIMEXE
 40
1.0
  9
$DIMTP
 40
0.0
  9
$DIMTM
 40
0.0
  9
$DIMTXT
 40
3.5
  9
$DIMCEN
 40
2.5
  9
$DIMTSZ
 40
0.0
  9
$DIMTOL
 70
     0
  9
$DIMLIM
 70
     0
  9
$DIMTIH
 70
     1
  9
$DIMTOH
 70
     1
  9
$DIMSE1
 70
     0
  9
$DIMSE2
 70
     0
  9
$DIMTAD
 70
     1
  9
$DIMZIN
 70
     1
  9
$DIMBLK
  1

  9
$DIMASO
 70
     1
  9
$DIMSHO
 70
     1
  9
$DIMPOST
  1

  9
$DIMAPOST
  1

  9
$DIMALT
 70
     0
  9
$DIMALTD
 70
     3
  9
$DIMALTF
 40
0.0393700787
  9
$DIMLFAC
 40
1.0
  9
$DIMTOFL
 70
     1
  9
$DIMTVP
 40
0.0
  9
$DIMTIX
 70
     0
  9
$DIMSOXD
 70
     0
  9
$DIMSAH
 70
     0
  9
$DIMBLK1
  1

  9
$DIMBLK2
  1

  9
$DIMSTYLE
  2
ISO-25
  9
$DIMCLRD
 70
     0
  9
$DIMCLRE
 70
     0
  9
$DIMCLRT
 70
     0
  9
$DIMTFAC
 40
1.0
  9
$DIMGAP
 40
1.524
  9
$LUNITS
 70
     2
  9
$LUPREC
 70
     2
  9
$SKETCHINC
 40
1.0
  9
$FILLETRAD
 40
10.0
  9
$AUNITS
 70
     0
  9
$AUPREC
 70
     2
  9
$MENU
  1
.
  9
$ELEVATION
 40
0.0
  9
$PELEVATION
 40
0.0
  9
$THICKNESS
 40
0.0
  9
$LIMCHECK
 70
     0
  9
$CHAMFERA
 40
0.0
  9
$CHAMFERB
 40
0.0
  9
$SKPOLY
 70
     0
  9
$TDCREATE
 40
2459577.688041678
  9
$TDUPDATE
 40
2459577.688079849
  9
$TDINDWG
 40
0.0000000116
  9
$TDUSRTIMER
 40
0.0000000116
  9
$USRTIMER
 70
     1
  9
$ANGBASE
 50
0.0
  9
$ANGDIR
 70
     0
  9
$PDMODE
 70
     0
  9
$PDSIZE
 40
-1.0
  9
$PLINEWID
 40
0.0
  9
$COORDS
 70
     1
  9
$SPLFRAME
 70
     0
  9
$SPLINETYPE
 70
     6
  9
$SPLINESEGS
 70
     8
  9
$ATTDIA
 70
     0
  9
$ATTREQ
 70
     1
  9
$HANDLING
 70
     1
  9
$HANDSEED
  5
184
  9
$SURFTAB1
 70
     6
  9
$SURFTAB2
 70
     6
  9
$SURFTYPE
 70
     6
  9
$SURFU
 70
     6
  9
$SURFV
 70
     6
  9
$UCSNAME
  2

  9
$UCSORG
 10
0.0
 20
0.0
 30
0.0
  9
$UCSXDIR
 10
1.0
 20
0.0
 30
0.0
  9
$UCSYDIR
 10
0.0
 20
1.0
 30
0.0
  9
$PUCSNAME
  2

  9
$PUCSORG
 10
0.0
 20
0.0
 30
0.0
  9
$PUCSXDIR
 10
1.0
 20
0.0
 30
0.0
  9
$PUCSYDIR
 10
0.0
 20
1.0
 30
0.0
  9
$USERI1
 70
     0
  9
$USERI2
 70
     0
  9
$USERI3
 70
     0
  9
$USERI4
 70
     0
  9
$USERI5
 70
     0
  9
$USERR1
 40
0.0
  9
$USERR2
 40
0.0
  9
$USERR3
 40
0.0
  9
$USERR4
 40
0.0
  9
$USERR5
 40
0.0
  9
$WORLDVIEW
 70
     1
  9
$SHADEDGE
 70
     3
  9
$SHADEDIF
 70
    70
  9
$TILEMODE
 70
     1
  9
$MAXACTVP
 70
    64
  9
$PLIMCHECK
 70
     0
  9
$PEXTMIN
 10
1.0000000000E+20
 20
1.0000000000E+20
 30
1.0000000000E+20
  9
$PEXTMAX
 10
-1.0000000000E+20
 20
-1.0000000000E+20
 30
-1.0000000000E+20
  9
$PLIMMIN
 10
0.0
 20
0.0
  9
$PLIMMAX
 10
420.0
 20
297.0
  9
$UNITMODE
 70
     0
  9
$VISRETAIN
 70
     1
  9
$PLINEGEN
 70
     0
  9
$PSLTSCALE
 70
     1
  0
ENDSEC
  0
SECTION
  2
TABLES
  0
TABLE
  2
VPORT
 70
     1
  0
VPORT
  2
*ACTIVE
 70
     0
 10
0.0
 20
0.0
 11
1.0
 21
1.0
 12
382.8448418631
 22
40.8207401803
 13
0.0
 23
0.0
 14
10.0
 24
10.0
 15
10.0
 25
10.0
 16
0.0
 26
0.0
 36
1.0
 17
0.0
 27
0.0
 37
0.0
 40
123.1749140321
 41
1.6736261959
 42
50.0
 43
0.0
 44
0.0
 50
0.0
 51
0.0
 71
     0
 72
   100
 73
     1
 74
     3
 75
     0
 76
     0
 77
     0
 78
     0
  0
ENDTAB
  0
TABLE
  2
LTYPE
 70
     6
  0
LTYPE
  2
CONTINUOUS
 70
     0
  3
Solid line
 72
    65
 73
     0
 40
0.0
  0
LTYPE
  2
HIDDEN
 70
     0
  3
Hidden __ __ __ __ __ __ __ __ __ __ __ __ __ __
 72
    65
 73
     2
 40
1.905
 49
1.27
 49
-0.635
  0
LTYPE
  2
PHANTOM
 70
     0
  3
Phantom ______  __  __  ______  __  __  ______
 72
    65
 73
     6
 40
12.7
 49
6.35
 49
-1.27
 49
1.27
 49
-1.27
 49
1.27
 49
-1.27
  0
LTYPE
  2
CENTER
 70
     0
  3
Center ____ _ ____ _ ____ _ ____ _ ____ _ ____
 72
    65
 73
     4
 40
10.16
 49
6.35
 49
-1.27
 49
1.27
 49
-1.27
  0
LTYPE
  2
CENTERX2
 70
     0
  3
Center (2x) ________  __  ________  __  _____
 72
    65
 73
     4
 40
20.32
 49
12.7
 49
-2.54
 49
2.54
 49
-2.54
  0
LTYPE
  2
DOT2
 70
     0
  3
Dot (.5x) ........................................
 72
    65
 73
     2
 40
0.635
 49
0.0
 49
-0.635
  0
ENDTAB
  0
TABLE
  2
LAYER
 70
     1
  0
LAYER
  2
0
 70
     0
 62
     7
  6
CONTINUOUS
  0
ENDTAB
  0
TABLE
  2
STYLE
 70
     1
  0
STYLE
  2
STANDARD
 70
     0
 40
0.0
 41
1.0
 50
0.0
 71
     0
 42
3.5
  3
txt
  4

  0
ENDTAB
  0
TABLE
  2
VIEW
 70
     0
  0
ENDTAB
  0
TABLE
  2
UCS
 70
     0
  0
ENDTAB
  0
TABLE
  2
APPID
 70
     1
  0
APPID
  2
ACAD
 70
     0
  0
ENDTAB
  0
TABLE
  2
DIMSTYLE
 70
     1
  0
DIMSTYLE
  2
ISO-25
 70
     0
  3

  4

  5

  6

  7

 40
1.0
 41
2.5
 42
0.625
 43
3.75
 44
1.25
 45
0.0
 46
0.0
 47
0.0
 48
0.0
140
2.5
141
2.5
142
0.0
143
0.0393700787
144
1.0
145
0.0
146
1.0
147
0.625
 71
     0
 72
     0
 73
     0
 74
     0
 75
     0
 76
     0
 77
     1
 78
     8
170
     0
171
     3
172
     1
173
     0
174
     0
175
     0
176
     0
177
     0
178
     0
  0
ENDTAB
  0
ENDSEC
  0
SECTION
  2
BLOCKS
  0
BLOCK
  8
0
  2
$MODEL_SPACE
 70
     0
 10
0.0
 20
0.0
 30
0.0
  3
$MODEL_SPACE
  1

  0
ENDBLK
  5
21
  8
0
  0
BLOCK
 67
     1
  8
0
  2
$PAPER_SPACE
 70
     0
 10
0.0
 20
0.0
 30
0.0
  3
$PAPER_SPACE
  1

  0
ENDBLK
  5
1D
 67
     1
  8
0
  0
ENDSEC
  0
SECTION
  2
ENTITIES
  0
LINE
  5
73
  8
0
  6
CONTINUOUS
 62
     7
 10
456.6126569633
 20
71.1508
 30
0.0
 11
456.6126569633
 21
57.1501
 31
0.0
  0
LINE
  5
74
  8
0
  6
CONTINUOUS
 62
     7
 10
470.6106569633
 20
71.1508
 30
0.0
 11
456.6126569633
 21
71.1508
 31
0.0
  0
LINE
  5
75
  8
0
  6
CONTINUOUS
 62
     7
 10
470.6106569633
 20
57.1501
 30
0.0
 11
470.6106569633
 21
71.1508
 31
0.0
  0
LINE
  5
76
  8
0
  6
CONTINUOUS
 62
     7
 10
456.6126569633
 20
57.1501
 30
0.0
 11
470.6106569633
 21
57.1501
 31
0.0
  0
LINE
  5
77
  8
0
  6
CONTINUOUS
 62
     7
 10
355.7326569633
 20
70.2953
 30
0.0
 11
341.8696569633
 21
68.3479
 31
0.0
  0
LINE
  5
78
  8
0
  6
CONTINUOUS
 62
     7
 10
357.6816569633
 20
56.4322
 30
0.0
 11
355.7326569633
 21
70.2953
 31
0.0
  0
LINE
  5
79
  8
0
  6
CONTINUOUS
 62
     7
 10
343.8166569633
 20
54.4834
 30
0.0
 11
357.6816569633
 21
56.4322
 31
0.0
  0
LINE
  5
7A
  8
0
  6
CONTINUOUS
 62
     7
 10
341.8696569633
 20
68.3479
 30
0.0
 11
343.8166569633
 21
54.4834
 31
0.0
  0
LINE
  5
7B
  8
0
  6
CONTINUOUS
 62
     7
 10
336.8686569633
 20
67.6438
 30
0.0
 11
323.0046569633
 21
65.6965
 31
0.0
  0
LINE
  5
7C
  8
0
  6
CONTINUOUS
 62
     7
 10
338.8156569633
 20
53.7807
 30
0.0
 11
336.8686569633
 21
67.6438
 31
0.0
  0
LINE
  5
7D
  8
0
  6
CONTINUOUS
 62
     7
 10
324.9526569633
 20
51.8323
 30
0.0
 11
338.8156569633
 21
53.7807
 31
0.0
  0
LINE
  5
7E
  8
0
  6
CONTINUOUS
 62
     7
 10
323.0046569633
 20
65.6965
 30
0.0
 11
324.9526569633
 21
51.8323
 31
0.0
  0
LINE
  5
7F
  8
0
  6
CONTINUOUS
 62
     7
 10
318.0036569633
 20
64.9937
 30
0.0
 11
304.1406569633
 21
63.0453
 31
0.0
  0
LINE
  5
80
  8
0
  6
CONTINUOUS
 62
     7
 10
319.9516569633
 20
51.1292
 30
0.0
 11
318.0036569633
 21
64.9937
 31
0.0
  0
LINE
  5
81
  8
0
  6
CONTINUOUS
 62
     7
 10
306.0876569633
 20
49.1808
 30
0.0
 11
319.9516569633
 21
51.1292
 31
0.0
  0
LINE
  5
82
  8
0
  6
CONTINUOUS
 62
     7
 10
304.1406569633
 20
63.0453
 30
0.0
 11
306.0876569633
 21
49.1808
 31
0.0
  0
LINE
  5
83
  8
0
  6
CONTINUOUS
 62
     7
 10
299.1396569633
 20
62.3426
 30
0.0
 11
285.2756569633
 21
60.3939
 31
0.0
  0
LINE
  5
84
  8
0
  6
CONTINUOUS
 62
     7
 10
301.0866569633
 20
48.4781
 30
0.0
 11
299.1396569633
 21
62.3426
 31
0.0
  0
LINE
  5
85
  8
0
  6
CONTINUOUS
 62
     7
 10
287.2236569633
 20
46.5308
 30
0.0
 11
301.0866569633
 21
48.4781
 31
0.0
  0
LINE
  5
86
  8
0
  6
CONTINUOUS
 62
     7
 10
285.2756569633
 20
60.3939
 30
0.0
 11
287.2236569633
 21
46.5308
 31
0.0
  0
LINE
  5
87
  8
0
  6
CONTINUOUS
 62
     7
 10
370.1236569633
 20
52.1008
 30
0.0
 11
370.1236569633
 21
38.1001
 31
0.0
  0
LINE
  5
88
  8
0
  6
CONTINUOUS
 62
     7
 10
384.1236569633
 20
52.1008
 30
0.0
 11
370.1236569633
 21
52.1008
 31
0.0
  0
LINE
  5
89
  8
0
  6
CONTINUOUS
 62
     7
 10
384.1236569633
 20
38.1001
 30
0.0
 11
384.1236569633
 21
52.1008
 31
0.0
  0
LINE
  5
8A
  8
0
  6
CONTINUOUS
 62
     7
 10
370.1236569633
 20
38.1001
 30
0.0
 11
384.1236569633
 21
38.1001
 31
0.0
  0
LINE
  5
8B
  8
0
  6
CONTINUOUS
 62
     7
 10
389.1736569633
 20
52.1008
 30
0.0
 11
389.1736569633
 21
38.1001
 31
0.0
  0
LINE
  5
8C
  8
0
  6
CONTINUOUS
 62
     7
 10
403.1736569633
 20
52.1008
 30
0.0
 11
389.1736569633
 21
52.1008
 31
0.0
  0
LINE
  5
8D
  8
0
  6
CONTINUOUS
 62
     7
 10
403.1736569633
 20
38.1001
 30
0.0
 11
403.1736569633
 21
52.1008
 31
0.0
  0
LINE
  5
8E
  8
0
  6
CONTINUOUS
 62
     7
 10
389.1736569633
 20
38.1001
 30
0.0
 11
403.1736569633
 21
38.1001
 31
0.0
  0
LINE
  5
8F
  8
0
  6
CONTINUOUS
 62
     7
 10
458.8986569633
 20
52.1008
 30
0.0
 11
458.8986569633
 21
38.1001
 31
0.0
  0
LINE
  5
90
  8
0
  6
CONTINUOUS
 62
     7
 10
472.8966569633
 20
52.1008
 30
0.0
 11
458.8986569633
 21
52.1008
 31
0.0
  0
LINE
  5
91
  8
0
  6
CONTINUOUS
 62
     7
 10
472.8966569633
 20
38.1001
 30
0.0
 11
472.8966569633
 21
52.1008
 31
0.0
  0
LINE
  5
92
  8
0
  6
CONTINUOUS
 62
     7
 10
458.8986569633
 20
38.1001
 30
0.0
 11
472.8966569633
 21
38.1001
 31
0.0
  0
LINE
  5
93
  8
0
  6
CONTINUOUS
 62
     7
 10
362.5136569633
 20
90.4866
 30
0.0
 11
348.6496569633
 21
88.5376
 31
0.0
  0
LINE
  5
94
  8
0
  6
CONTINUOUS
 62
     7
 10
364.4626569633
 20
76.6231
 30
0.0
 11
362.5136569633
 21
90.4866
 31
0.0
  0
LINE
  5
95
  8
0
  6
CONTINUOUS
 62
     7
 10
350.5986569633
 20
74.6747
 30
0.0
 11
364.4626569633
 21
76.6231
 31
0.0
  0
LINE
  5
96
  8
0
  6
CONTINUOUS
 62
     7
 10
348.6496569633
 20
88.5376
 30
0.0
 11
350.5986569633
 21
74.6747
 31
0.0
  0
LINE
  5
97
  8
0
  6
CONTINUOUS
 62
     7
 10
343.6486569633
 20
87.8346
 30
0.0
 11
329.7856569633
 21
85.8863
 31
0.0
  0
LINE
  5
98
  8
0
  6
CONTINUOUS
 62
     7
 10
345.5986569633
 20
73.9716
 30
0.0
 11
343.6486569633
 21
87.8346
 31
0.0
  0
LINE
  5
99
  8
0
  6
CONTINUOUS
 62
     7
 10
331.7346569633
 20
72.0218
 30
0.0
 11
345.5986569633
 21
73.9716
 31
0.0
  0
LINE
  5
9A
  8
0
  6
CONTINUOUS
 62
     7
 10
329.7856569633
 20
85.8863
 30
0.0
 11
331.7346569633
 21
72.0218
 31
0.0
  0
LINE
  5
9B
  8
0
  6
CONTINUOUS
 62
     7
 10
324.7846569633
 20
85.1836
 30
0.0
 11
310.9216569633
 21
83.2348
 31
0.0
  0
LINE
  5
9C
  8
0
  6
CONTINUOUS
 62
     7
 10
326.7336569633
 20
71.319
 30
0.0
 11
324.7846569633
 21
85.1836
 31
0.0
  0
LINE
  5
9D
  8
0
  6
CONTINUOUS
 62
     7
 10
312.8686569633
 20
69.3717
 30
0.0
 11
326.7336569633
 21
71.319
 31
0.0
  0
LINE
  5
9E
  8
0
  6
CONTINUOUS
 62
     7
 10
310.9216569633
 20
83.2348
 30
0.0
 11
312.8686569633
 21
69.3717
 31
0.0
  0
LINE
  5
9F
  8
0
  6
CONTINUOUS
 62
     7
 10
305.9206569633
 20
82.5321
 30
0.0
 11
292.0566569633
 21
80.5851
 31
0.0
  0
LINE
  5
A0
  8
0
  6
CONTINUOUS
 62
     7
 10
307.8676569633
 20
68.669
 30
0.0
 11
305.9206569633
 21
82.5321
 31
0.0
  0
LINE
  5
A1
  8
0
  6
CONTINUOUS
 62
     7
 10
294.0046569633
 20
66.7206
 30
0.0
 11
307.8676569633
 21
68.669
 31
0.0
  0
LINE
  5
A2
  8
0
  6
CONTINUOUS
 62
     7
 10
292.0566569633
 20
80.5851
 30
0.0
 11
294.0046569633
 21
66.7206
 31
0.0
  0
LINE
  5
A3
  8
0
  6
CONTINUOUS
 62
     7
 10
363.0736569633
 20
71.1508
 30
0.0
 11
363.0736569633
 21
57.1501
 31
0.0
  0
LINE
  5
A4
  8
0
  6
CONTINUOUS
 62
     7
 10
377.0746569633
 20
71.1508
 30
0.0
 11
363.0736569633
 21
71.1508
 31
0.0
  0
LINE
  5
A5
  8
0
  6
CONTINUOUS
 62
     7
 10
377.0746569633
 20
57.1501
 30
0.0
 11
377.0746569633
 21
71.1508
 31
0.0
  0
LINE
  5
A6
  8
0
  6
CONTINUOUS
 62
     7
 10
363.0736569633
 20
57.1501
 30
0.0
 11
377.0746569633
 21
57.1501
 31
0.0
  0
LINE
  5
A7
  8
0
  6
CONTINUOUS
 62
     7
 10
382.1246569633
 20
71.1508
 30
0.0
 11
382.1246569633
 21
57.1501
 31
0.0
  0
LINE
  5
A8
  8
0
  6
CONTINUOUS
 62
     7
 10
396.1256569633
 20
71.1508
 30
0.0
 11
382.1246569633
 21
71.1508
 31
0.0
  0
LINE
  5
A9
  8
0
  6
CONTINUOUS
 62
     7
 10
396.1256569633
 20
57.1501
 30
0.0
 11
396.1256569633
 21
71.1508
 31
0.0
  0
LINE
  5
AA
  8
0
  6
CONTINUOUS
 62
     7
 10
382.1246569633
 20
57.1501
 30
0.0
 11
396.1256569633
 21
57.1501
 31
0.0
  0
LINE
  5
AB
  8
0
  6
CONTINUOUS
 62
     7
 10
401.1746569633
 20
71.1508
 30
0.0
 11
401.1746569633
 21
57.1501
 31
0.0
  0
LINE
  5
AC
  8
0
  6
CONTINUOUS
 62
     7
 10
415.1756569633
 20
71.1508
 30
0.0
 11
401.1746569633
 21
71.1508
 31
0.0
  0
LINE
  5
AD
  8
0
  6
CONTINUOUS
 62
     7
 10
415.1756569633
 20
57.1501
 30
0.0
 11
415.1756569633
 21
71.1508
 31
0.0
  0
LINE
  5
AE
  8
0
  6
CONTINUOUS
 62
     7
 10
401.1746569633
 20
57.1501
 30
0.0
 11
415.1756569633
 21
57.1501
 31
0.0
  0
LINE
  5
AF
  8
0
  6
CONTINUOUS
 62
     7
 10
424.9876569633
 20
71.1508
 30
0.0
 11
424.9876569633
 21
57.1501
 31
0.0
  0
LINE
  5
B0
  8
0
  6
CONTINUOUS
 62
     7
 10
438.9866569633
 20
71.1508
 30
0.0
 11
424.9876569633
 21
71.1508
 31
0.0
  0
LINE
  5
B1
  8
0
  6
CONTINUOUS
 62
     7
 10
438.9866569633
 20
57.1501
 30
0.0
 11
438.9866569633
 21
71.1508
 31
0.0
  0
LINE
  5
B2
  8
0
  6
CONTINUOUS
 62
     7
 10
424.9876569633
 20
57.1501
 30
0.0
 11
438.9866569633
 21
57.1501
 31
0.0
  0
LINE
  5
B3
  8
0
  6
CONTINUOUS
 62
     7
 10
439.8466569633
 20
28.2869
 30
0.0
 11
439.8466569633
 21
14.2875
 31
0.0
  0
LINE
  5
B4
  8
0
  6
CONTINUOUS
 62
     7
 10
453.8466569633
 20
28.2869
 30
0.0
 11
439.8466569633
 21
28.2869
 31
0.0
  0
LINE
  5
B5
  8
0
  6
CONTINUOUS
 62
     7
 10
453.8466569633
 20
14.2875
 30
0.0
 11
453.8466569633
 21
28.2869
 31
0.0
  0
LINE
  5
B6
  8
0
  6
CONTINUOUS
 62
     7
 10
439.8466569633
 20
14.2875
 30
0.0
 11
453.8466569633
 21
14.2875
 31
0.0
  0
LINE
  5
B7
  8
0
  6
CONTINUOUS
 62
     7
 10
337.4546569633
 20
29.2531
 30
0.0
 11
323.5916569633
 21
27.3044
 31
0.0
  0
LINE
  5
B8
  8
0
  6
CONTINUOUS
 62
     7
 10
339.4026569633
 20
15.3886
 30
0.0
 11
337.4546569633
 21
29.2531
 31
0.0
  0
LINE
  5
B9
  8
0
  6
CONTINUOUS
 62
     7
 10
325.5386569633
 20
13.44
 30
0.0
 11
339.4026569633
 21
15.3886
 31
0.0
  0
LINE
  5
BA
  8
0
  6
CONTINUOUS
 62
     7
 10
323.5916569633
 20
27.3044
 30
0.0
 11
325.5386569633
 21
13.44
 31
0.0
  0
LINE
  5
BB
  8
0
  6
CONTINUOUS
 62
     7
 10
318.5906569633
 20
26.6016
 30
0.0
 11
304.7256569633
 21
24.6532
 31
0.0
  0
LINE
  5
BC
  8
0
  6
CONTINUOUS
 62
     7
 10
320.5376569633
 20
12.7372
 30
0.0
 11
318.5906569633
 21
26.6016
 31
0.0
  0
LINE
  5
BD
  8
0
  6
CONTINUOUS
 62
     7
 10
306.6746569633
 20
10.7901
 30
0.0
 11
320.5376569633
 21
12.7372
 31
0.0
  0
LINE
  5
BE
  8
0
  6
CONTINUOUS
 62
     7
 10
304.7256569633
 20
24.6532
 30
0.0
 11
306.6746569633
 21
10.7901
 31
0.0
  0
LINE
  5
BF
  8
0
  6
CONTINUOUS
 62
     7
 10
299.7246569633
 20
23.9502
 30
0.0
 11
285.8606569633
 21
22.0018
 31
0.0
  0
LINE
  5
C0
  8
0
  6
CONTINUOUS
 62
     7
 10
301.6736569633
 20
10.0859
 30
0.0
 11
299.7246569633
 21
23.9502
 31
0.0
  0
LINE
  5
C1
  8
0
  6
CONTINUOUS
 62
     7
 10
287.8106569633
 20
8.1387
 30
0.0
 11
301.6736569633
 21
10.0859
 31
0.0
  0
LINE
  5
C2
  8
0
  6
CONTINUOUS
 62
     7
 10
285.8606569633
 20
22.0018
 30
0.0
 11
287.8106569633
 21
8.1387
 31
0.0
  0
LINE
  5
C3
  8
0
  6
CONTINUOUS
 62
     7
 10
370.4086569633
 20
14.0009
 30
0.0
 11
370.4086569633
 21
0.0
 31
0.0
  0
LINE
  5
C4
  8
0
  6
CONTINUOUS
 62
     7
 10
384.4096569633
 20
14.0009
 30
0.0
 11
370.4086569633
 21
14.0009
 31
0.0
  0
LINE
  5
C5
  8
0
  6
CONTINUOUS
 62
     7
 10
384.4096569633
 20
0.0
 30
0.0
 11
384.4096569633
 21
14.0009
 31
0.0
  0
LINE
  5
C6
  8
0
  6
CONTINUOUS
 62
     7
 10
370.4086569633
 20
0.0
 30
0.0
 11
384.4096569633
 21
0.0
 31
0.0
  0
LINE
  5
C7
  8
0
  6
CONTINUOUS
 62
     7
 10
394.2216569633
 20
14.0009
 30
0.0
 11
394.2216569633
 21
0.0
 31
0.0
  0
LINE
  5
C8
  8
0
  6
CONTINUOUS
 62
     7
 10
408.2206569633
 20
14.0009
 30
0.0
 11
394.2216569633
 21
14.0009
 31
0.0
  0
LINE
  5
C9
  8
0
  6
CONTINUOUS
 62
     7
 10
408.2206569633
 20
0.0
 30
0.0
 11
408.2206569633
 21
14.0009
 31
0.0
  0
LINE
  5
CA
  8
0
  6
CONTINUOUS
 62
     7
 10
394.2216569633
 20
0.0
 30
0.0
 11
408.2206569633
 21
0.0
 31
0.0
  0
LINE
  5
CB
  8
0
  6
CONTINUOUS
 62
     7
 10
420.7966569633
 20
9.237
 30
0.0
 11
420.7966569633
 21
-4.7625
 31
0.0
  0
LINE
  5
CC
  8
0
  6
CONTINUOUS
 62
     7
 10
434.7966569633
 20
9.237
 30
0.0
 11
420.7966569633
 21
9.237
 31
0.0
  0
LINE
  5
CD
  8
0
  6
CONTINUOUS
 62
     7
 10
434.7966569633
 20
-4.7625
 30
0.0
 11
434.7966569633
 21
9.237
 31
0.0
  0
LINE
  5
CE
  8
0
  6
CONTINUOUS
 62
     7
 10
420.7966569633
 20
-4.7625
 30
0.0
 11
434.7966569633
 21
-4.7625
 31
0.0
  0
LINE
  5
CF
  8
0
  6
CONTINUOUS
 62
     7
 10
439.8466569633
 20
9.237
 30
0.0
 11
439.8466569633
 21
-4.7625
 31
0.0
  0
LINE
  5
D0
  8
0
  6
CONTINUOUS
 62
     7
 10
453.8466569633
 20
9.237
 30
0.0
 11
439.8466569633
 21
9.237
 31
0.0
  0
LINE
  5
D1
  8
0
  6
CONTINUOUS
 62
     7
 10
453.8466569633
 20
-4.7625
 30
0.0
 11
453.8466569633
 21
9.237
 31
0.0
  0
LINE
  5
D2
  8
0
  6
CONTINUOUS
 62
     7
 10
439.8466569633
 20
-4.7625
 30
0.0
 11
453.8466569633
 21
-4.7625
 31
0.0
  0
LINE
  5
D3
  8
0
  6
CONTINUOUS
 62
     7
 10
363.0996569633
 20
52.0941
 30
0.0
 11
349.2366569633
 21
50.1453
 31
0.0
  0
LINE
  5
D4
  8
0
  6
CONTINUOUS
 62
     7
 10
365.0496569633
 20
38.231
 30
0.0
 11
363.0996569633
 21
52.0941
 31
0.0
  0
LINE
  5
D5
  8
0
  6
CONTINUOUS
 62
     7
 10
351.1836569633
 20
36.2812
 30
0.0
 11
365.0496569633
 21
38.231
 31
0.0
  0
LINE
  5
D6
  8
0
  6
CONTINUOUS
 62
     7
 10
349.2366569633
 20
50.1453
 30
0.0
 11
351.1836569633
 21
36.2812
 31
0.0
  0
LINE
  5
D7
  8
0
  6
CONTINUOUS
 62
     7
 10
344.2356569633
 20
49.4426
 30
0.0
 11
330.3726569633
 21
47.4942
 31
0.0
  0
LINE
  5
D8
  8
0
  6
CONTINUOUS
 62
     7
 10
346.1846569633
 20
35.5795
 30
0.0
 11
344.2356569633
 21
49.4426
 31
0.0
  0
LINE
  5
D9
  8
0
  6
CONTINUOUS
 62
     7
 10
332.3196569633
 20
33.6311
 30
0.0
 11
346.1846569633
 21
35.5795
 31
0.0
  0
LINE
  5
DA
  8
0
  6
CONTINUOUS
 62
     7
 10
330.3726569633
 20
47.4942
 30
0.0
 11
332.3196569633
 21
33.6311
 31
0.0
  0
LINE
  5
DB
  8
0
  6
CONTINUOUS
 62
     7
 10
325.3716569633
 20
46.7915
 30
0.0
 11
311.5076569633
 21
44.8427
 31
0.0
  0
LINE
  5
DC
  8
0
  6
CONTINUOUS
 62
     7
 10
327.3186569633
 20
32.9269
 30
0.0
 11
325.3716569633
 21
46.7915
 31
0.0
  0
LINE
  5
DD
  8
0
  6
CONTINUOUS
 62
     7
 10
313.4556569633
 20
30.9796
 30
0.0
 11
327.3186569633
 21
32.9269
 31
0.0
  0
LINE
  5
DE
  8
0
  6
CONTINUOUS
 62
     7
 10
311.5076569633
 20
44.8427
 30
0.0
 11
313.4556569633
 21
30.9796
 31
0.0
  0
LINE
  5
DF
  8
0
  6
CONTINUOUS
 62
     7
 10
306.5066569633
 20
44.14
 30
0.0
 11
292.6436569633
 21
42.1916
 31
0.0
  0
LINE
  5
E0
  8
0
  6
CONTINUOUS
 62
     7
 10
308.4546569633
 20
30.2769
 30
0.0
 11
306.5066569633
 21
44.14
 31
0.0
  0
LINE
  5
E1
  8
0
  6
CONTINUOUS
 62
     7
 10
294.5906569633
 20
28.3285
 30
0.0
 11
308.4546569633
 21
30.2769
 31
0.0
  0
LINE
  5
E2
  8
0
  6
CONTINUOUS
 62
     7
 10
292.6436569633
 20
42.1916
 30
0.0
 11
294.5906569633
 21
28.3285
 31
0.0
  0
LINE
  5
E3
  8
0
  6
CONTINUOUS
 62
     7
 10
356.3196569633
 20
31.9028
 30
0.0
 11
342.4556569633
 21
29.9558
 31
0.0
  0
LINE
  5
E4
  8
0
  6
CONTINUOUS
 62
     7
 10
358.2666569633
 20
18.0399
 30
0.0
 11
356.3196569633
 21
31.9028
 31
0.0
  0
LINE
  5
E5
  8
0
  6
CONTINUOUS
 62
     7
 10
344.4036569633
 20
16.0914
 30
0.0
 11
358.2666569633
 21
18.0399
 31
0.0
  0
LINE
  5
E6
  8
0
  6
CONTINUOUS
 62
     7
 10
342.4556569633
 20
29.9558
 30
0.0
 11
344.4036569633
 21
16.0914
 31
0.0
  0
LINE
  5
E7
  8
0
  6
CONTINUOUS
 62
     7
 10
408.3186569633
 20
33.0508
 30
0.0
 11
408.3186569633
 21
19.05
 31
0.0
  0
LINE
  5
E8
  8
0
  6
CONTINUOUS
 62
     7
 10
422.3176569633
 20
33.0508
 30
0.0
 11
408.3186569633
 21
33.0508
 31
0.0
  0
LINE
  5
E9
  8
0
  6
CONTINUOUS
 62
     7
 10
422.3176569633
 20
19.05
 30
0.0
 11
422.3176569633
 21
33.0508
 31
0.0
  0
LINE
  5
EA
  8
0
  6
CONTINUOUS
 62
     7
 10
408.3186569633
 20
19.05
 30
0.0
 11
422.3176569633
 21
19.05
 31
0.0
  0
LINE
  5
EB
  8
0
  6
CONTINUOUS
 62
     7
 10
382.1246569633
 20
33.0508
 30
0.0
 11
382.1246569633
 21
19.05
 31
0.0
  0
LINE
  5
EC
  8
0
  6
CONTINUOUS
 62
     7
 10
396.1256569633
 20
33.0508
 30
0.0
 11
382.1246569633
 21
33.0508
 31
0.0
  0
LINE
  5
ED
  8
0
  6
CONTINUOUS
 62
     7
 10
396.1256569633
 20
19.05
 30
0.0
 11
396.1256569633
 21
33.0508
 31
0.0
  0
LINE
  5
EE
  8
0
  6
CONTINUOUS
 62
     7
 10
382.1246569633
 20
19.05
 30
0.0
 11
396.1256569633
 21
19.05
 31
0.0
  0
LINE
  5
EF
  8
0
  6
CONTINUOUS
 62
     7
 10
363.0746569633
 20
33.0508
 30
0.0
 11
363.0746569633
 21
19.05
 31
0.0
  0
LINE
  5
F0
  8
0
  6
CONTINUOUS
 62
     7
 10
377.0756569633
 20
33.0508
 30
0.0
 11
363.0746569633
 21
33.0508
 31
0.0
  0
LINE
  5
F1
  8
0
  6
CONTINUOUS
 62
     7
 10
377.0756569633
 20
19.05
 30
0.0
 11
377.0756569633
 21
33.0508
 31
0.0
  0
LINE
  5
F2
  8
0
  6
CONTINUOUS
 62
     7
 10
363.0746569633
 20
19.05
 30
0.0
 11
377.0756569633
 21
19.05
 31
0.0
  0
ARC
  5
F3
  8
0
  6
CONTINUOUS
 62
     7
 10
320.8227792319
 20
8.1548765953
 30
0.0
 40
0.5000000000000003
 50
98.0118218475
 51
188.0118218475
  0
LINE
  5
F4
  8
0
  6
CONTINUOUS
 62
     7
 10
327.2639141301
 20
9.5664027989
 30
0.0
 11
320.7530905218
 21
8.6499962613
 31
0.0
  0
ARC
  5
F5
  8
0
  6
CONTINUOUS
 62
     7
 10
327.3336028402
 20
9.0712831329
 30
0.0
 40
0.50000000000001
 50
8.0118218475
 51
98.0118218475
  0
LINE
  5
F6
  8
0
  6
CONTINUOUS
 62
     7
 10
329.9109793503
 20
-5.6529067061
 30
0.0
 11
327.8287225062
 21
9.140971843
 31
0.0
  0
ARC
  5
F7
  8
0
  6
CONTINUOUS
 62
     7
 10
329.4158596843
 20
-5.7225954162
 30
0.0
 40
0.5000000000000038
 50
278.0118218475
 51
8.0118218475
  0
LINE
  5
F8
  8
0
  6
CONTINUOUS
 62
     7
 10
322.9747247861
 20
-7.1341216198
 30
0.0
 11
329.4855483944
 21
-6.2177150822
 31
0.0
  0
ARC
  5
F9
  8
0
  6
CONTINUOUS
 62
     7
 10
322.905036076
 20
-6.6390019538
 30
0.0
 40
0.4999999999999959
 50
188.0118218475
 51
278.0118218475
  0
LINE
  5
FA
  8
0
  6
CONTINUOUS
 62
     7
 10
322.344381147
 20
-6.2430801299
 30
0.0
 11
322.40991641
 21
-6.7086906639
 31
0.0
  0
LINE
  5
FB
  8
0
  6
CONTINUOUS
 62
     7
 10
305.4603054158
 20
-8.6195348325
 30
0.0
 11
322.344381147
 21
-6.2430801299
 31
0.0
  0
LINE
  5
FC
  8
0
  6
CONTINUOUS
 62
     7
 10
305.5258406788
 20
-9.0851453664
 30
0.0
 11
305.4603054158
 21
-8.6195348325
 31
0.0
  0
ARC
  5
FD
  8
0
  6
CONTINUOUS
 62
     7
 10
305.0307210128
 20
-9.1548340765
 30
0.0
 40
0.4999999999999888
 50
278.0118218475
 51
8.0118218475
  0
LINE
  5
FE
  8
0
  6
CONTINUOUS
 62
     7
 10
298.5895861146
 20
-10.5663602802
 30
0.0
 11
305.1004097229
 21
-9.6499537426
 31
0.0
  0
ARC
  5
FF
  8
0
  6
CONTINUOUS
 62
     7
 10
298.5198974045
 20
-10.0712406141
 30
0.0
 40
0.5000000000000003
 50
188.0118218475
 51
278.0118218475
  0
LINE
  5
100
  8
0
  6
CONTINUOUS
 62
     7
 10
295.9425208944
 20
4.6529492249
 30
0.0
 11
298.0247777385
 21
-10.1409293242
 31
0.0
  0
ARC
  5
101
  8
0
  6
CONTINUOUS
 62
     7
 10
296.4376405604
 20
4.722637935
 30
0.0
 40
0.5000000000000467
 50
98.0118218475
 51
188.0118218475
  0
LINE
  5
102
  8
0
  6
CONTINUOUS
 62
     7
 10
302.8787754586
 20
6.1341641386
 30
0.0
 11
296.3679518503
 21
5.217757601
 31
0.0
  0
ARC
  5
103
  8
0
  6
CONTINUOUS
 62
     7
 10
302.9484641687
 20
5.6390444726
 30
0.0
 40
0.4999999999999959
 50
8.0118218475
 51
98.0118218475
  0
LINE
  5
104
  8
0
  6
CONTINUOUS
 62
     7
 10
303.5091190977
 20
5.2431226487
 30
0.0
 11
303.4435838347
 21
5.7087331826
 31
0.0
  0
LINE
  5
105
  8
0
  6
CONTINUOUS
 62
     7
 10
320.3931948289
 20
7.6195773513
 30
0.0
 11
303.5091190977
 21
5.2431226487
 31
0.0
  0
LINE
  5
106
  8
0
  6
CONTINUOUS
 62
     7
 10
320.3276595659
 20
8.0851878852
 30
0.0
 11
320.3931948289
 21
7.6195773513
 31
0.0
  0
ARC
  5
107
  8
0
  6
CONTINUOUS
 62
     7
 10
436.1544069633
 20
52.571
 30
0.0
 40
0.5
 50
90.0
 51
180.0
  0
LINE
  5
108
  8
0
  6
CONTINUOUS
 62
     7
 10
442.7294069633
 20
53.071
 30
0.0
 11
436.1544069633
 21
53.071
 31
0.0
  0
ARC
  5
109
  8
0
  6
CONTINUOUS
 62
     7
 10
442.7294069633
 20
52.571
 30
0.0
 40
0.5
 50
0.0
 51
90.0
  0
LINE
  5
10A
  8
0
  6
CONTINUOUS
 62
     7
 10
443.2294069633
 20
37.6313
 30
0.0
 11
443.2294069633
 21
52.571
 31
0.0
  0
ARC
  5
10B
  8
0
  6
CONTINUOUS
 62
     7
 10
442.7294069633
 20
37.6313
 30
0.0
 40
0.5000000000000071
 50
270.0
 51
0.0
  0
LINE
  5
10C
  8
0
  6
CONTINUOUS
 62
     7
 10
436.1544069633
 20
37.1313
 30
0.0
 11
442.7294069633
 21
37.1313
 31
0.0
  0
ARC
  5
10D
  8
0
  6
CONTINUOUS
 62
     7
 10
436.1544069633
 20
37.6313
 30
0.0
 40
0.5
 50
180.0
 51
270.0
  0
LINE
  5
10E
  8
0
  6
CONTINUOUS
 62
     7
 10
435.6544069633
 20
38.1015
 30
0.0
 11
435.6544069633
 21
37.6313
 31
0.0
  0
LINE
  5
10F
  8
0
  6
CONTINUOUS
 62
     7
 10
418.6039069633
 20
38.1015
 30
0.0
 11
435.6544069633
 21
38.1015
 31
0.0
  0
LINE
  5
110
  8
0
  6
CONTINUOUS
 62
     7
 10
418.6039069633
 20
37.6313
 30
0.0
 11
418.6039069633
 21
38.1015
 31
0.0
  0
ARC
  5
111
  8
0
  6
CONTINUOUS
 62
     7
 10
418.1039069633
 20
37.6313
 30
0.0
 40
0.5
 50
270.0
 51
0.0
  0
LINE
  5
112
  8
0
  6
CONTINUOUS
 62
     7
 10
411.5289069633
 20
37.1313
 30
0.0
 11
418.1039069633
 21
37.1313
 31
0.0
  0
ARC
  5
113
  8
0
  6
CONTINUOUS
 62
     7
 10
411.5289069633
 20
37.6313
 30
0.0
 40
0.5
 50
180.0
 51
270.0
  0
LINE
  5
114
  8
0
  6
CONTINUOUS
 62
     7
 10
411.0289069633
 20
52.571
 30
0.0
 11
411.0289069633
 21
37.6313
 31
0.0
  0
ARC
  5
115
  8
0
  6
CONTINUOUS
 62
     7
 10
411.5289069633
 20
52.571
 30
0.0
 40
0.5
 50
90.0
 51
180.0
  0
LINE
  5
116
  8
0
  6
CONTINUOUS
 62
     7
 10
418.1039069633
 20
53.071
 30
0.0
 11
411.5289069633
 21
53.071
 31
0.0
  0
ARC
  5
117
  8
0
  6
CONTINUOUS
 62
     7
 10
418.1039069633
 20
52.571
 30
0.0
 40
0.5
 50
0.0
 51
90.0
  0
LINE
  5
118
  8
0
  6
CONTINUOUS
 62
     7
 10
418.6039069633
 20
52.1008
 30
0.0
 11
418.6039069633
 21
52.571
 31
0.0
  0
LINE
  5
119
  8
0
  6
CONTINUOUS
 62
     7
 10
435.6544069633
 20
52.1008
 30
0.0
 11
418.6039069633
 21
52.1008
 31
0.0
  0
LINE
  5
11A
  8
0
  6
CONTINUOUS
 62
     7
 10
435.6544069633
 20
52.571
 30
0.0
 11
435.6544069633
 21
52.1008
 31
0.0
  0
LINE
  5
11B
  8
0
  6
CONTINUOUS
 62
     7
 10
415.8419069633
 20
90.2006
 30
0.0
 11
415.8419069633
 21
90.6708
 31
0.0
  0
LINE
  5
11C
  8
0
  6
CONTINUOUS
 62
     7
 10
432.8924069633
 20
90.2006
 30
0.0
 11
415.8419069633
 21
90.2006
 31
0.0
  0
LINE
  5
11D
  8
0
  6
CONTINUOUS
 62
     7
 10
432.8924069633
 20
90.6708
 30
0.0
 11
432.8924069633
 21
90.2006
 31
0.0
  0
ARC
  5
11E
  8
0
  6
CONTINUOUS
 62
     7
 10
433.3924069633
 20
90.6708
 30
0.0
 40
0.5
 50
90.0
 51
180.0
  0
LINE
  5
11F
  8
0
  6
CONTINUOUS
 62
     7
 10
439.9674069633
 20
91.1708
 30
0.0
 11
433.3924069633
 21
91.1708
 31
0.0
  0
ARC
  5
120
  8
0
  6
CONTINUOUS
 62
     7
 10
439.9674069633
 20
90.6708
 30
0.0
 40
0.5
 50
0.0
 51
90.0
  0
LINE
  5
121
  8
0
  6
CONTINUOUS
 62
     7
 10
440.4674069633
 20
90.2006
 30
0.0
 11
440.4674069633
 21
90.6708
 31
0.0
  0
LINE
  5
122
  8
0
  6
CONTINUOUS
 62
     7
 10
440.8916569633
 20
90.2006
 30
0.0
 11
440.4674069633
 21
90.2006
 31
0.0
  0
LINE
  5
123
  8
0
  6
CONTINUOUS
 62
     7
 10
440.8916569633
 20
76.2014
 30
0.0
 11
440.8916569633
 21
90.2006
 31
0.0
  0
LINE
  5
124
  8
0
  6
CONTINUOUS
 62
     7
 10
440.4674069633
 20
76.2014
 30
0.0
 11
440.8916569633
 21
76.2014
 31
0.0
  0
LINE
  5
125
  8
0
  6
CONTINUOUS
 62
     7
 10
440.4674069633
 20
75.7311
 30
0.0
 11
440.4674069633
 21
76.2014
 31
0.0
  0
ARC
  5
126
  8
0
  6
CONTINUOUS
 62
     7
 10
439.9674069633
 20
75.7311
 30
0.0
 40
0.5
 50
270.0
 51
0.0
  0
LINE
  5
127
  8
0
  6
CONTINUOUS
 62
     7
 10
433.3924069633
 20
75.2311
 30
0.0
 11
439.9674069633
 21
75.2311
 31
0.0
  0
ARC
  5
128
  8
0
  6
CONTINUOUS
 62
     7
 10
433.3924069633
 20
75.7311
 30
0.0
 40
0.5
 50
180.0
 51
270.0
  0
LINE
  5
129
  8
0
  6
CONTINUOUS
 62
     7
 10
432.8924069633
 20
76.2013
 30
0.0
 11
432.8924069633
 21
75.7311
 31
0.0
  0
LINE
  5
12A
  8
0
  6
CONTINUOUS
 62
     7
 10
415.8419069633
 20
76.2013
 30
0.0
 11
432.8924069633
 21
76.2013
 31
0.0
  0
LINE
  5
12B
  8
0
  6
CONTINUOUS
 62
     7
 10
415.8419069633
 20
75.7311
 30
0.0
 11
415.8419069633
 21
76.2013
 31
0.0
  0
ARC
  5
12C
  8
0
  6
CONTINUOUS
 62
     7
 10
415.3419069633
 20
75.7311
 30
0.0
 40
0.5
 50
270.0
 51
0.0
  0
LINE
  5
12D
  8
0
  6
CONTINUOUS
 62
     7
 10
408.7669069633
 20
75.2311
 30
0.0
 11
415.3419069633
 21
75.2311
 31
0.0
  0
ARC
  5
12E
  8
0
  6
CONTINUOUS
 62
     7
 10
408.7669069633
 20
75.7311
 30
0.0
 40
0.5
 50
180.0
 51
270.0
  0
LINE
  5
12F
  8
0
  6
CONTINUOUS
 62
     7
 10
408.2669069633
 20
76.2014
 30
0.0
 11
408.2669069633
 21
75.7311
 31
0.0
  0
LINE
  5
130
  8
0
  6
CONTINUOUS
 62
     7
 10
407.8426569633
 20
76.2014
 30
0.0
 11
408.2669069633
 21
76.2014
 31
0.0
  0
LINE
  5
131
  8
0
  6
CONTINUOUS
 62
     7
 10
407.8426569633
 20
90.2006
 30
0.0
 11
407.8426569633
 21
76.2014
 31
0.0
  0
LINE
  5
132
  8
0
  6
CONTINUOUS
 62
     7
 10
408.2669069633
 20
90.2006
 30
0.0
 11
407.8426569633
 21
90.2006
 31
0.0
  0
LINE
  5
133
  8
0
  6
CONTINUOUS
 62
     7
 10
408.2669069633
 20
90.6708
 30
0.0
 11
408.2669069633
 21
90.2006
 31
0.0
  0
ARC
  5
134
  8
0
  6
CONTINUOUS
 62
     7
 10
408.7669069633
 20
90.6708
 30
0.0
 40
0.5
 50
90.0
 51
180.0
  0
LINE
  5
135
  8
0
  6
CONTINUOUS
 62
     7
 10
415.3419069633
 20
91.1708
 30
0.0
 11
408.7669069633
 21
91.1708
 31
0.0
  0
ARC
  5
136
  8
0
  6
CONTINUOUS
 62
     7
 10
415.3419069633
 20
90.6708
 30
0.0
 40
0.5
 50
0.0
 51
90.0
  0
LINE
  5
137
  8
0
  6
CONTINUOUS
 62
     7
 10
369.7416569633
 20
90.2006
 30
0.0
 11
369.7416569633
 21
76.2001
 31
0.0
  0
LINE
  5
138
  8
0
  6
CONTINUOUS
 62
     7
 10
383.7426569633
 20
90.2006
 30
0.0
 11
369.7416569633
 21
90.2006
 31
0.0
  0
LINE
  5
139
  8
0
  6
CONTINUOUS
 62
     7
 10
383.7426569633
 20
76.2001
 30
0.0
 11
383.7426569633
 21
90.2006
 31
0.0
  0
LINE
  5
13A
  8
0
  6
CONTINUOUS
 62
     7
 10
369.7416569633
 20
76.2001
 30
0.0
 11
383.7426569633
 21
76.2001
 31
0.0
  0
LINE
  5
13B
  8
0
  6
CONTINUOUS
 62
     7
 10
388.7916569633
 20
90.2006
 30
0.0
 11
388.7916569633
 21
76.2001
 31
0.0
  0
LINE
  5
13C
  8
0
  6
CONTINUOUS
 62
     7
 10
402.7926569633
 20
90.2006
 30
0.0
 11
388.7916569633
 21
90.2006
 31
0.0
  0
LINE
  5
13D
  8
0
  6
CONTINUOUS
 62
     7
 10
402.7926569633
 20
76.2001
 30
0.0
 11
402.7926569633
 21
90.2006
 31
0.0
  0
LINE
  5
13E
  8
0
  6
CONTINUOUS
 62
     7
 10
388.7916569633
 20
76.2001
 30
0.0
 11
402.7926569633
 21
76.2001
 31
0.0
  0
LINE
  5
13F
  8
0
  6
CONTINUOUS
 62
     7
 10
458.8986569633
 20
9.237
 30
0.0
 11
458.8986569633
 21
-4.7625
 31
0.0
  0
LINE
  5
140
  8
0
  6
CONTINUOUS
 62
     7
 10
472.8966569633
 20
9.237
 30
0.0
 11
458.8986569633
 21
9.237
 31
0.0
  0
LINE
  5
141
  8
0
  6
CONTINUOUS
 62
     7
 10
472.8966569633
 20
-4.7625
 30
0.0
 11
472.8966569633
 21
9.237
 31
0.0
  0
LINE
  5
142
  8
0
  6
CONTINUOUS
 62
     7
 10
458.8986569633
 20
-4.7625
 30
0.0
 11
472.8966569633
 21
-4.7625
 31
0.0
  0
CIRCLE
  5
143
  8
0
  6
CONTINUOUS
 62
     7
 10
405.3176569633
 20
97.7006
 30
0.0
 40
1.800000000000011
  0
CIRCLE
  5
144
  8
0
  6
CONTINUOUS
 62
     7
 10
307.3773385262
 20
90.3096822637
 30
0.0
 40
1.800000000000011
  0
CIRCLE
  5
145
  8
0
  6
CONTINUOUS
 62
     7
 10
307.8698416665
 20
-15.8552276178
 30
0.0
 40
1.80000000000001
  0
CIRCLE
  5
146
  8
0
  6
CONTINUOUS
 62
     7
 10
389.3156569633
 20
-7.5
 30
0.0
 40
1.800000000000008
  0
CIRCLE
  5
147
  8
0
  6
CONTINUOUS
 62
     7
 10
480.3981569633
 20
33.1935
 30
0.0
 40
1.800000000000008
  0
LINE
  5
148
  8
0
  6
CONTINUOUS
 62
     7
 10
306.8715410972
 20
-19.5299243364
 30
0.0
 11
309.8423457942
 21
-19.1124085256
 31
0.0
  0
ARC
  5
149
  8
0
  6
CONTINUOUS
 62
     7
 10
309.4248299835
 20
-16.1416038286
 30
0.0
 40
3.000000000000026
 50
277.9999326494
 51
7.9999326494
  0
LINE
  5
14A
  8
0
  6
CONTINUOUS
 62
     7
 10
312.3956346805
 20
-15.7240880179
 30
0.0
 11
311.9363621508
 21
-12.4561662927
 31
0.0
  0
ARC
  5
14B
  8
0
  6
CONTINUOUS
 62
     7
 10
312.9266303831
 20
-12.3169943558
 30
0.0
 40
1.000000000000008
 50
98.0
 51
187.9999326494
  0
LINE
  5
14C
  8
0
  6
CONTINUOUS
 62
     7
 10
312.7874572822
 20
-11.3267262871
 30
0.0
 11
366.985188297
 21
-3.7097319313
 31
0.0
  0
ARC
  5
14D
  8
0
  6
CONTINUOUS
 62
     7
 10
367.124361398
 20
-4.7
 30
0.0
 40
0.9999999999999996
 50
90.0
 51
98.0
  0
LINE
  5
14E
  8
0
  6
CONTINUOUS
 62
     7
 10
367.124361398
 20
-3.7
 30
0.0
 11
383.8156569633
 21
-3.7
 31
0.0
  0
ARC
  5
14F
  8
0
  6
CONTINUOUS
 62
     7
 10
383.8156569633
 20
-4.7
 30
0.0
 40
1.0
 50
0.0
 51
90.0
  0
LINE
  5
150
  8
0
  6
CONTINUOUS
 62
     7
 10
384.8156569633
 20
-4.7
 30
0.0
 11
384.8156569633
 21
-8.0
 31
0.0
  0
ARC
  5
151
  8
0
  6
CONTINUOUS
 62
     7
 10
387.8156569633
 20
-8.0
 30
0.0
 40
3.000000000000001
 50
180.0
 51
270.0
  0
LINE
  5
152
  8
0
  6
CONTINUOUS
 62
     7
 10
387.8156569633
 20
-11.0
 30
0.0
 11
390.8156569633
 21
-11.0
 31
0.0
  0
ARC
  5
153
  8
0
  6
CONTINUOUS
 62
     7
 10
390.8156569633
 20
-8.0
 30
0.0
 40
3.000000000000001
 50
270.0
 51
0.0
  0
LINE
  5
154
  8
0
  6
CONTINUOUS
 62
     7
 10
393.8156569633
 20
-8.0
 30
0.0
 11
393.8156569633
 21
-4.7
 31
0.0
  0
ARC
  5
155
  8
0
  6
CONTINUOUS
 62
     7
 10
394.8156569633
 20
-4.7
 30
0.0
 40
1.0
 50
90.0
 51
180.0
  0
LINE
  5
156
  8
0
  6
CONTINUOUS
 62
     7
 10
394.8156569633
 20
-3.7
 30
0.0
 11
416.0966569633
 21
-3.7
 31
0.0
  0
ARC
  5
157
  8
0
  6
CONTINUOUS
 62
     7
 10
416.0966569633
 20
-4.7
 30
0.0
 40
1.0
 50
0.0
 51
90.0
  0
LINE
  5
158
  8
0
  6
CONTINUOUS
 62
     7
 10
417.0966569633
 20
-4.7
 30
0.0
 11
417.0966569633
 21
-7.4625
 31
0.0
  0
ARC
  5
159
  8
0
  6
CONTINUOUS
 62
     7
 10
418.0966569633
 20
-7.4625
 30
0.0
 40
1.000000000000001
 50
180.0
 51
270.0
  0
LINE
  5
15A
  8
0
  6
CONTINUOUS
 62
     7
 10
418.0966569633
 20
-8.4625
 30
0.0
 11
475.5981569633
 21
-8.4625
 31
0.0
  0
ARC
  5
15B
  8
0
  6
CONTINUOUS
 62
     7
 10
475.5981569633
 20
-7.4625
 30
0.0
 40
1.000000000000001
 50
270.0
 51
0.0
  0
LINE
  5
15C
  8
0
  6
CONTINUOUS
 62
     7
 10
476.5981569633
 20
-7.4625
 30
0.0
 11
476.5981569633
 21
27.6935
 31
0.0
  0
ARC
  5
15D
  8
0
  6
CONTINUOUS
 62
     7
 10
477.5981569633
 20
27.6935
 30
0.0
 40
1.000000000000004
 50
90.0
 51
180.0
  0
LINE
  5
15E
  8
0
  6
CONTINUOUS
 62
     7
 10
477.5981569633
 20
28.6935
 30
0.0
 11
480.8981569633
 21
28.6935
 31
0.0
  0
ARC
  5
15F
  8
0
  6
CONTINUOUS
 62
     7
 10
480.8981569633
 20
31.6935
 30
0.0
 40
3.000000000000004
 50
270.0
 51
0.0
  0
LINE
  5
160
  8
0
  6
CONTINUOUS
 62
     7
 10
483.8981569633
 20
31.6935
 30
0.0
 11
483.8981569633
 21
34.6935
 31
0.0
  0
ARC
  5
161
  8
0
  6
CONTINUOUS
 62
     7
 10
480.8981569633
 20
34.6935
 30
0.0
 40
3.000000000000007
 50
0.0
 51
90.0
  0
LINE
  5
162
  8
0
  6
CONTINUOUS
 62
     7
 10
480.8981569633
 20
37.6935
 30
0.0
 11
477.5981569633
 21
37.6935
 31
0.0
  0
ARC
  5
163
  8
0
  6
CONTINUOUS
 62
     7
 10
477.5981569633
 20
38.6935
 30
0.0
 40
1.0
 50
180.0
 51
270.0
  0
LINE
  5
164
  8
0
  6
CONTINUOUS
 62
     7
 10
476.5981569633
 20
38.6935
 30
0.0
 11
476.5981569633
 21
74.3508
 31
0.0
  0
ARC
  5
165
  8
0
  6
CONTINUOUS
 62
     7
 10
475.5981569633
 20
74.3508
 30
0.0
 40
1.0
 50
0.0
 51
90.0
  0
LINE
  5
166
  8
0
  6
CONTINUOUS
 62
     7
 10
475.5981569633
 20
75.3508
 30
0.0
 11
453.3126569633
 21
75.3508
 31
0.0
  0
ARC
  5
167
  8
0
  6
CONTINUOUS
 62
     7
 10
453.3126569633
 20
76.3508
 30
0.0
 40
1.0
 50
180.0
 51
270.0
  0
LINE
  5
168
  8
0
  6
CONTINUOUS
 62
     7
 10
452.3126569633
 20
76.3508
 30
0.0
 11
452.3126569633
 21
92.9006
 31
0.0
  0
ARC
  5
169
  8
0
  6
CONTINUOUS
 62
     7
 10
451.3126569633
 20
92.9006
 30
0.0
 40
1.0
 50
0.0
 51
90.0
  0
LINE
  5
16A
  8
0
  6
CONTINUOUS
 62
     7
 10
451.3126569633
 20
93.9006
 30
0.0
 11
410.8176569633
 21
93.9006
 31
0.0
  0
ARC
  5
16B
  8
0
  6
CONTINUOUS
 62
     7
 10
410.8176569633
 20
94.9006
 30
0.0
 40
1.0
 50
180.0
 51
270.0
  0
LINE
  5
16C
  8
0
  6
CONTINUOUS
 62
     7
 10
409.8176569633
 20
94.9006
 30
0.0
 11
409.8176569633
 21
98.2006
 31
0.0
  0
ARC
  5
16D
  8
0
  6
CONTINUOUS
 62
     7
 10
406.8176569633
 20
98.2006
 30
0.0
 40
3.0
 50
0.0
 51
90.0
  0
LINE
  5
16E
  8
0
  6
CONTINUOUS
 62
     7
 10
406.8176569633
 20
101.2006
 30
0.0
 11
403.8176569633
 21
101.2006
 31
0.0
  0
ARC
  5
16F
  8
0
  6
CONTINUOUS
 62
     7
 10
403.8176569633
 20
98.2006
 30
0.0
 40
3.0
 50
90.0
 51
180.0
  0
LINE
  5
170
  8
0
  6
CONTINUOUS
 62
     7
 10
400.8176569633
 20
98.2006
 30
0.0
 11
400.8176569633
 21
94.9006
 31
0.0
  0
ARC
  5
171
  8
0
  6
CONTINUOUS
 62
     7
 10
399.8176569633
 20
94.9006
 30
0.0
 40
1.0
 50
270.0
 51
0.0
  0
LINE
  5
172
  8
0
  6
CONTINUOUS
 62
     7
 10
399.8176569633
 20
93.9006
 30
0.0
 11
360.2956135377
 21
93.9006
 31
0.0
  0
ARC
  5
173
  8
0
  6
CONTINUOUS
 62
     7
 10
360.2956135377
 20
92.9006
 30
0.0
 40
1.0
 50
90.0
 51
98.0009802039
  0
LINE
  5
174
  8
0
  6
CONTINUOUS
 62
     7
 10
360.1564234955
 20
93.8908656877
 30
0.0
 11
313.3527219687
 21
87.3122178829
 31
0.0
  0
ARC
  5
175
  8
0
  6
CONTINUOUS
 62
     7
 10
313.2135319265
 20
88.3024835705
 30
0.0
 40
0.9999999999999845
 50
188.0009802039
 51
278.0009802039
  0
LINE
  5
176
  8
0
  6
CONTINUOUS
 62
     7
 10
312.2232662388
 20
88.1632935283
 30
0.0
 11
311.7639390995
 21
91.4311702976
 31
0.0
  0
ARC
  5
177
  8
0
  6
CONTINUOUS
 62
     7
 10
308.7931420365
 20
91.0136001709
 30
0.0
 40
3.000000000000025
 50
8.0009802039
 51
98.0009802039
  0
LINE
  5
178
  8
0
  6
CONTINUOUS
 62
     7
 10
308.3755719098
 20
93.9843972338
 30
0.0
 11
305.4047748469
 21
93.5668271071
 31
0.0
  0
ARC
  5
179
  8
0
  6
CONTINUOUS
 62
     7
 10
305.8223449736
 20
90.5960300442
 30
0.0
 40
2.999999999999992
 50
98.0009802039
 51
188.0009802039
  0
LINE
  5
17A
  8
0
  6
CONTINUOUS
 62
     7
 10
302.8515479106
 20
90.1784599175
 30
0.0
 11
303.31087505
 21
86.9105831482
 31
0.0
  0
ARC
  5
17B
  8
0
  6
CONTINUOUS
 62
     7
 10
302.3206093623
 20
86.771393106
 30
0.0
 40
1.000000000000012
 50
278.0009802039
 51
8.0009802039
  0
LINE
  5
17C
  8
0
  6
CONTINUOUS
 62
     7
 10
302.4597994045
 20
85.7811274183
 30
0.0
 11
282.6523367206
 21
82.9970245236
 31
0.0
  0
ARC
  5
17D
  8
0
  6
CONTINUOUS
 62
     7
 10
282.7915267629
 20
82.006758836
 30
0.0
 40
1.0
 50
98.0009802039
 51
180.0
  0
LINE
  5
17E
  8
0
  6
CONTINUOUS
 62
     7
 10
281.7915267629
 20
82.006758836
 30
0.0
 11
281.7915267629
 21
-14.5325518274
 31
0.0
  0
ARC
  5
17F
  8
0
  6
CONTINUOUS
 62
     7
 10
282.7915267629
 20
-14.5325518274
 30
0.0
 40
1.000000000000008
 50
180.0
 51
278.0
  0
LINE
  5
180
  8
0
  6
CONTINUOUS
 62
     7
 10
282.9306998638
 20
-15.5228198961
 30
0.0
 11
301.894508526
 21
-12.8576303976
 31
0.0
  0
ARC
  5
181
  8
0
  6
CONTINUOUS
 62
     7
 10
302.033681627
 20
-13.8478984664
 30
0.0
 40
1.00000000000001
 50
7.9999326494
 51
98.0
  0
LINE
  5
182
  8
0
  6
CONTINUOUS
 62
     7
 10
303.0239498593
 20
-13.7087265295
 30
0.0
 11
303.4832205895
 21
-16.9766354501
 31
0.0
  0
ARC
  5
183
  8
0
  6
CONTINUOUS
 62
     7
 10
306.4540252865
 20
-16.5591196394
 30
0.0
 40
3.000000000000027
 50
187.9999326494
 51
277.9999326494
  0
ENDSEC
  0
EOF
