  0
SECTION
  2
HEADER
  9
$ACADVER
  1
AC1009
  9
$DWGCODEPAGE
  3
ansi_1252
  9
$INSBASE
 10
0.0
 20
0.0
 30
0.0
  9
$EXTMIN
 10
-11.0
 20
-19.2845741708
 30
0.0
  9
$EXTMAX
 10
170.3886670228
 20
101.2006
 30
0.0
  9
$LIMMIN
 10
0.0
 20
0.0
  9
$LIMMAX
 10
420.0
 20
297.0
  9
$ORTHOMODE
 70
     0
  9
$REGENMODE
 70
     1
  9
$FILLMODE
 70
     1
  9
$QTEXTMODE
 70
     0
  9
$MIRRTEXT
 70
     1
  9
$DRAGMODE
 70
     2
  9
$LTSCALE
 40
1.0
  9
$OSMODE
 70
    37
  9
$ATTMODE
 70
     1
  9
$TEXTSIZE
 40
3.5
  9
$TRACEWID
 40
1.0
  9
$TEXTSTYLE
  7
STANDARD
  9
$CLAYER
  8
0
  9
$CELTYPE
  6
BYLAYER
  9
$CECOLOR
 62
   256
  9
$DIMSCALE
 40
1.0
  9
$DIMASZ
 40
3.302
  9
$DIMEXO
 40
1.0
  9
$DIMDLI
 40
3.75
  9
$DIMRND
 40
0.0
  9
$DIMDLE
 40
0.0
  9
$DIMEXE
 40
1.0
  9
$DIMTP
 40
0.0
  9
$DIMTM
 40
0.0
  9
$DIMTXT
 40
3.5
  9
$DIMCEN
 40
2.5
  9
$DIMTSZ
 40
0.0
  9
$DIMTOL
 70
     0
  9
$DIMLIM
 70
     0
  9
$DIMTIH
 70
     1
  9
$DIMTOH
 70
     1
  9
$DIMSE1
 70
     0
  9
$DIMSE2
 70
     0
  9
$DIMTAD
 70
     1
  9
$DIMZIN
 70
     1
  9
$DIMBLK
  1

  9
$DIMASO
 70
     1
  9
$DIMSHO
 70
     1
  9
$DIMPOST
  1

  9
$DIMAPOST
  1

  9
$DIMALT
 70
     0
  9
$DIMALTD
 70
     3
  9
$DIMALTF
 40
0.0393700787
  9
$DIMLFAC
 40
1.0
  9
$DIMTOFL
 70
     1
  9
$DIMTVP
 40
0.0
  9
$DIMTIX
 70
     0
  9
$DIMSOXD
 70
     0
  9
$DIMSAH
 70
     0
  9
$DIMBLK1
  1

  9
$DIMBLK2
  1

  9
$DIMSTYLE
  2
ISO-25
  9
$DIMCLRD
 70
     0
  9
$DIMCLRE
 70
     0
  9
$DIMCLRT
 70
     0
  9
$DIMTFAC
 40
1.0
  9
$DIMGAP
 40
1.524
  9
$LUNITS
 70
     2
  9
$LUPREC
 70
     2
  9
$SKETCHINC
 40
1.0
  9
$FILLETRAD
 40
10.0
  9
$AUNITS
 70
     0
  9
$AUPREC
 70
     2
  9
$MENU
  1
.
  9
$ELEVATION
 40
0.0
  9
$PELEVATION
 40
0.0
  9
$THICKNESS
 40
0.0
  9
$LIMCHECK
 70
     0
  9
$CHAMFERA
 40
0.0
  9
$CHAMFERB
 40
0.0
  9
$SKPOLY
 70
     0
  9
$TDCREATE
 40
2459577.702470197
  9
$TDUPDATE
 40
2459577.702496852
  9
$TDINDWG
 40
0.0000000116
  9
$TDUSRTIMER
 40
0.0000000116
  9
$USRTIMER
 70
     1
  9
$ANGBASE
 50
0.0
  9
$ANGDIR
 70
     0
  9
$PDMODE
 70
     0
  9
$PDSIZE
 40
-1.0
  9
$PLINEWID
 40
0.0
  9
$COORDS
 70
     1
  9
$SPLFRAME
 70
     0
  9
$SPLINETYPE
 70
     6
  9
$SPLINESEGS
 70
     8
  9
$ATTDIA
 70
     0
  9
$ATTREQ
 70
     1
  9
$HANDLING
 70
     1
  9
$HANDSEED
  5
16E
  9
$SURFTAB1
 70
     6
  9
$SURFTAB2
 70
     6
  9
$SURFTYPE
 70
     6
  9
$SURFU
 70
     6
  9
$SURFV
 70
     6
  9
$UCSNAME
  2

  9
$UCSORG
 10
0.0
 20
0.0
 30
0.0
  9
$UCSXDIR
 10
1.0
 20
0.0
 30
0.0
  9
$UCSYDIR
 10
0.0
 20
1.0
 30
0.0
  9
$PUCSNAME
  2

  9
$PUCSORG
 10
0.0
 20
0.0
 30
0.0
  9
$PUCSXDIR
 10
1.0
 20
0.0
 30
0.0
  9
$PUCSYDIR
 10
0.0
 20
1.0
 30
0.0
  9
$USERI1
 70
     0
  9
$USERI2
 70
     0
  9
$USERI3
 70
     0
  9
$USERI4
 70
     0
  9
$USERI5
 70
     0
  9
$USERR1
 40
0.0
  9
$USERR2
 40
0.0
  9
$USERR3
 40
0.0
  9
$USERR4
 40
0.0
  9
$USERR5
 40
0.0
  9
$WORLDVIEW
 70
     1
  9
$SHADEDGE
 70
     3
  9
$SHADEDIF
 70
    70
  9
$TILEMODE
 70
     1
  9
$MAXACTVP
 70
    64
  9
$PLIMCHECK
 70
     0
  9
$PEXTMIN
 10
1.0000000000E+20
 20
1.0000000000E+20
 30
1.0000000000E+20
  9
$PEXTMAX
 10
-1.0000000000E+20
 20
-1.0000000000E+20
 30
-1.0000000000E+20
  9
$PLIMMIN
 10
0.0
 20
0.0
  9
$PLIMMAX
 10
420.0
 20
297.0
  9
$UNITMODE
 70
     0
  9
$VISRETAIN
 70
     1
  9
$PLINEGEN
 70
     0
  9
$PSLTSCALE
 70
     1
  0
ENDSEC
  0
SECTION
  2
TABLES
  0
TABLE
  2
VPORT
 70
     1
  0
VPORT
  2
*ACTIVE
 70
     0
 10
0.0
 20
0.0
 11
1.0
 21
1.0
 12
79.6943335114
 22
40.9580129146
 13
0.0
 23
0.0
 14
10.0
 24
10.0
 15
10.0
 25
10.0
 16
0.0
 26
0.0
 36
1.0
 17
0.0
 27
0.0
 37
0.0
 40
122.8948776542
 41
1.5054853701
 42
50.0
 43
0.0
 44
0.0
 50
0.0
 51
0.0
 71
     0
 72
   100
 73
     1
 74
     3
 75
     0
 76
     0
 77
     0
 78
     0
  0
ENDTAB
  0
TABLE
  2
LTYPE
 70
     6
  0
LTYPE
  2
CONTINUOUS
 70
     0
  3
Solid line
 72
    65
 73
     0
 40
0.0
  0
LTYPE
  2
HIDDEN
 70
     0
  3
Hidden __ __ __ __ __ __ __ __ __ __ __ __ __ __
 72
    65
 73
     2
 40
1.905
 49
1.27
 49
-0.635
  0
LTYPE
  2
PHANTOM
 70
     0
  3
Phantom ______  __  __  ______  __  __  ______
 72
    65
 73
     6
 40
12.7
 49
6.35
 49
-1.27
 49
1.27
 49
-1.27
 49
1.27
 49
-1.27
  0
LTYPE
  2
CENTER
 70
     0
  3
Center ____ _ ____ _ ____ _ ____ _ ____ _ ____
 72
    65
 73
     4
 40
10.16
 49
6.35
 49
-1.27
 49
1.27
 49
-1.27
  0
LTYPE
  2
CENTERX2
 70
     0
  3
Center (2x) ________  __  ________  __  _____
 72
    65
 73
     4
 40
20.32
 49
12.7
 49
-2.54
 49
2.54
 49
-2.54
  0
LTYPE
  2
DOT2
 70
     0
  3
Dot (.5x) ........................................
 72
    65
 73
     2
 40
0.635
 49
0.0
 49
-0.635
  0
ENDTAB
  0
TABLE
  2
LAYER
 70
     1
  0
LAYER
  2
0
 70
     0
 62
     7
  6
CONTINUOUS
  0
ENDTAB
  0
TABLE
  2
STYLE
 70
     1
  0
STYLE
  2
STANDARD
 70
     0
 40
0.0
 41
1.0
 50
0.0
 71
     0
 42
3.5
  3
txt
  4

  0
ENDTAB
  0
TABLE
  2
VIEW
 70
     0
  0
ENDTAB
  0
TABLE
  2
UCS
 70
     0
  0
ENDTAB
  0
TABLE
  2
APPID
 70
     1
  0
APPID
  2
ACAD
 70
     0
  0
ENDTAB
  0
TABLE
  2
DIMSTYLE
 70
     1
  0
DIMSTYLE
  2
ISO-25
 70
     0
  3

  4

  5

  6

  7

 40
1.0
 41
2.5
 42
0.625
 43
3.75
 44
1.25
 45
0.0
 46
0.0
 47
0.0
 48
0.0
140
2.5
141
2.5
142
0.0
143
0.0393700787
144
1.0
145
0.0
146
1.0
147
0.625
 71
     0
 72
     0
 73
     0
 74
     0
 75
     0
 76
     0
 77
     1
 78
     8
170
     0
171
     3
172
     1
173
     0
174
     0
175
     0
176
     0
177
     0
178
     0
  0
ENDTAB
  0
ENDSEC
  0
SECTION
  2
BLOCKS
  0
BLOCK
  8
0
  2
$MODEL_SPACE
 70
     0
 10
0.0
 20
0.0
 30
0.0
  3
$MODEL_SPACE
  1

  0
ENDBLK
  5
21
  8
0
  0
BLOCK
 67
     1
  8
0
  2
$PAPER_SPACE
 70
     0
 10
0.0
 20
0.0
 30
0.0
  3
$PAPER_SPACE
  1

  0
ENDBLK
  5
1D
 67
     1
  8
0
  0
ENDSEC
  0
SECTION
  2
ENTITIES
  0
LINE
  5
73
  8
0
  6
CONTINUOUS
 62
     7
 10
31.3807
 20
33.0508
 30
0.0
 11
30.9563
 21
33.0508
 31
0.0
  0
LINE
  5
74
  8
0
  6
CONTINUOUS
 62
     7
 10
31.3807
 20
33.521
 30
0.0
 11
31.3807
 21
33.0508
 31
0.0
  0
ARC
  5
75
  8
0
  6
CONTINUOUS
 62
     7
 10
31.8807
 20
33.521
 30
0.0
 40
0.5
 50
90.0
 51
180.0
  0
LINE
  5
76
  8
0
  6
CONTINUOUS
 62
     7
 10
38.4557
 20
34.021
 30
0.0
 11
31.8807
 21
34.021
 31
0.0
  0
ARC
  5
77
  8
0
  6
CONTINUOUS
 62
     7
 10
38.4557
 20
33.521
 30
0.0
 40
0.5
 50
0.0
 51
90.0
  0
LINE
  5
78
  8
0
  6
CONTINUOUS
 62
     7
 10
38.9557
 20
33.0508
 30
0.0
 11
38.9557
 21
33.521
 31
0.0
  0
LINE
  5
79
  8
0
  6
CONTINUOUS
 62
     7
 10
56.0062
 20
33.0508
 30
0.0
 11
38.9557
 21
33.0508
 31
0.0
  0
LINE
  5
7A
  8
0
  6
CONTINUOUS
 62
     7
 10
56.0062
 20
33.521
 30
0.0
 11
56.0062
 21
33.0508
 31
0.0
  0
ARC
  5
7B
  8
0
  6
CONTINUOUS
 62
     7
 10
56.5062
 20
33.521
 30
0.0
 40
0.5
 50
90.0
 51
180.0
  0
LINE
  5
7C
  8
0
  6
CONTINUOUS
 62
     7
 10
63.0812
 20
34.021
 30
0.0
 11
56.5062
 21
34.021
 31
0.0
  0
ARC
  5
7D
  8
0
  6
CONTINUOUS
 62
     7
 10
63.0812
 20
33.521
 30
0.0
 40
0.5000000000000071
 50
0.0
 51
90.0
  0
LINE
  5
7E
  8
0
  6
CONTINUOUS
 62
     7
 10
63.5812
 20
33.0508
 30
0.0
 11
63.5812
 21
33.521
 31
0.0
  0
LINE
  5
7F
  8
0
  6
CONTINUOUS
 62
     7
 10
66.3868
 20
33.0508
 30
0.0
 11
63.5812
 21
33.0508
 31
0.0
  0
LINE
  5
80
  8
0
  6
CONTINUOUS
 62
     7
 10
66.3868
 20
19.05
 30
0.0
 11
66.3868
 21
33.0508
 31
0.0
  0
LINE
  5
81
  8
0
  6
CONTINUOUS
 62
     7
 10
63.5812
 20
19.05
 30
0.0
 11
66.3868
 21
19.05
 31
0.0
  0
LINE
  5
82
  8
0
  6
CONTINUOUS
 62
     7
 10
63.5812
 20
18.5813
 30
0.0
 11
63.5812
 21
19.05
 31
0.0
  0
ARC
  5
83
  8
0
  6
CONTINUOUS
 62
     7
 10
63.0812
 20
18.5813
 30
0.0
 40
0.5000000000000142
 50
270.0
 51
0.0
  0
LINE
  5
84
  8
0
  6
CONTINUOUS
 62
     7
 10
56.5062
 20
18.0813
 30
0.0
 11
63.0812
 21
18.0813
 31
0.0
  0
ARC
  5
85
  8
0
  6
CONTINUOUS
 62
     7
 10
56.5062
 20
18.5813
 30
0.0
 40
0.5
 50
180.0
 51
270.0
  0
LINE
  5
86
  8
0
  6
CONTINUOUS
 62
     7
 10
56.0062
 20
19.05
 30
0.0
 11
56.0062
 21
18.5813
 31
0.0
  0
LINE
  5
87
  8
0
  6
CONTINUOUS
 62
     7
 10
52.3875
 20
19.05
 30
0.0
 11
56.0062
 21
19.05
 31
0.0
  0
LINE
  5
88
  8
0
  6
CONTINUOUS
 62
     7
 10
52.3875
 20
19.0515
 30
0.0
 11
52.3875
 21
19.05
 31
0.0
  0
LINE
  5
89
  8
0
  6
CONTINUOUS
 62
     7
 10
44.9556
 20
19.0515
 30
0.0
 11
52.3875
 21
19.0515
 31
0.0
  0
LINE
  5
8A
  8
0
  6
CONTINUOUS
 62
     7
 10
44.9556
 20
19.05
 30
0.0
 11
44.9556
 21
19.0515
 31
0.0
  0
LINE
  5
8B
  8
0
  6
CONTINUOUS
 62
     7
 10
38.9557
 20
19.05
 30
0.0
 11
44.9556
 21
19.05
 31
0.0
  0
LINE
  5
8C
  8
0
  6
CONTINUOUS
 62
     7
 10
38.9557
 20
18.5813
 30
0.0
 11
38.9557
 21
19.05
 31
0.0
  0
ARC
  5
8D
  8
0
  6
CONTINUOUS
 62
     7
 10
38.4557
 20
18.5813
 30
0.0
 40
0.5
 50
270.0
 51
0.0
  0
LINE
  5
8E
  8
0
  6
CONTINUOUS
 62
     7
 10
31.8807
 20
18.0813
 30
0.0
 11
38.4557
 21
18.0813
 31
0.0
  0
ARC
  5
8F
  8
0
  6
CONTINUOUS
 62
     7
 10
31.8807
 20
18.5813
 30
0.0
 40
0.5
 50
180.0
 51
270.0
  0
LINE
  5
90
  8
0
  6
CONTINUOUS
 62
     7
 10
31.3807
 20
19.05
 30
0.0
 11
31.3807
 21
18.5813
 31
0.0
  0
LINE
  5
91
  8
0
  6
CONTINUOUS
 62
     7
 10
30.9563
 20
19.05
 30
0.0
 11
31.3807
 21
19.05
 31
0.0
  0
LINE
  5
92
  8
0
  6
CONTINUOUS
 62
     7
 10
30.9563
 20
33.0508
 30
0.0
 11
30.9563
 21
19.05
 31
0.0
  0
LINE
  5
93
  8
0
  6
CONTINUOUS
 62
     7
 10
142.4383
 20
44.406
 30
0.0
 11
140.4893
 21
30.5429
 31
0.0
  0
LINE
  5
94
  8
0
  6
CONTINUOUS
 62
     7
 10
156.3013
 20
42.4586
 30
0.0
 11
142.4383
 21
44.406
 31
0.0
  0
LINE
  5
95
  8
0
  6
CONTINUOUS
 62
     7
 10
154.3523
 20
28.5945
 30
0.0
 11
156.3013
 21
42.4586
 31
0.0
  0
LINE
  5
96
  8
0
  6
CONTINUOUS
 62
     7
 10
140.4893
 20
30.5429
 30
0.0
 11
154.3523
 21
28.5945
 31
0.0
  0
LINE
  5
97
  8
0
  6
CONTINUOUS
 62
     7
 10
123.5723
 20
47.0571
 30
0.0
 11
121.6243
 21
33.1929
 31
0.0
  0
LINE
  5
98
  8
0
  6
CONTINUOUS
 62
     7
 10
137.4373
 20
45.1101
 30
0.0
 11
123.5723
 21
47.0571
 31
0.0
  0
LINE
  5
99
  8
0
  6
CONTINUOUS
 62
     7
 10
135.4883
 20
31.2456
 30
0.0
 11
137.4373
 21
45.1101
 31
0.0
  0
LINE
  5
9A
  8
0
  6
CONTINUOUS
 62
     7
 10
121.6243
 20
33.1929
 30
0.0
 11
135.4883
 21
31.2456
 31
0.0
  0
LINE
  5
9B
  8
0
  6
CONTINUOUS
 62
     7
 10
104.7083
 20
49.7086
 30
0.0
 11
102.7603
 21
35.8455
 31
0.0
  0
LINE
  5
9C
  8
0
  6
CONTINUOUS
 62
     7
 10
118.5733
 20
47.7602
 30
0.0
 11
104.7083
 21
49.7086
 31
0.0
  0
LINE
  5
9D
  8
0
  6
CONTINUOUS
 62
     7
 10
116.6233
 20
33.8971
 30
0.0
 11
118.5733
 21
47.7602
 31
0.0
  0
LINE
  5
9E
  8
0
  6
CONTINUOUS
 62
     7
 10
102.7603
 20
35.8455
 30
0.0
 11
116.6233
 21
33.8971
 31
0.0
  0
LINE
  5
9F
  8
0
  6
CONTINUOUS
 62
     7
 10
85.8436
 20
52.3601
 30
0.0
 11
83.8962
 21
38.4969
 31
0.0
  0
LINE
  5
A0
  8
0
  6
CONTINUOUS
 62
     7
 10
99.7083
 20
50.4113
 30
0.0
 11
85.8436
 21
52.3601
 31
0.0
  0
LINE
  5
A1
  8
0
  6
CONTINUOUS
 62
     7
 10
97.7593
 20
36.5482
 30
0.0
 11
99.7083
 21
50.4113
 31
0.0
  0
LINE
  5
A2
  8
0
  6
CONTINUOUS
 62
     7
 10
83.8962
 20
38.4969
 30
0.0
 11
97.7593
 21
36.5482
 31
0.0
  0
LINE
  5
A3
  8
0
  6
CONTINUOUS
 62
     7
 10
140.3723
 20
63.934
 30
0.0
 11
138.4253
 21
50.0709
 31
0.0
  0
LINE
  5
A4
  8
0
  6
CONTINUOUS
 62
     7
 10
154.2373
 20
61.9856
 30
0.0
 11
140.3723
 21
63.934
 31
0.0
  0
LINE
  5
A5
  8
0
  6
CONTINUOUS
 62
     7
 10
152.2883
 20
48.1211
 30
0.0
 11
154.2373
 21
61.9856
 31
0.0
  0
LINE
  5
A6
  8
0
  6
CONTINUOUS
 62
     7
 10
138.4253
 20
50.0709
 30
0.0
 11
152.2883
 21
48.1211
 31
0.0
  0
LINE
  5
A7
  8
0
  6
CONTINUOUS
 62
     7
 10
0.0
 20
52.1008
 30
0.0
 11
0.0
 21
38.1001
 31
0.0
  0
LINE
  5
A8
  8
0
  6
CONTINUOUS
 62
     7
 10
13.9994
 20
52.1008
 30
0.0
 11
0.0
 21
52.1008
 31
0.0
  0
LINE
  5
A9
  8
0
  6
CONTINUOUS
 62
     7
 10
13.9994
 20
38.1001
 30
0.0
 11
13.9994
 21
52.1008
 31
0.0
  0
LINE
  5
AA
  8
0
  6
CONTINUOUS
 62
     7
 10
0.0
 20
38.1001
 30
0.0
 11
13.9994
 21
38.1001
 31
0.0
  0
LINE
  5
AB
  8
0
  6
CONTINUOUS
 62
     7
 10
52.3847
 20
52.1008
 30
0.0
 11
33.6226
 21
52.1008
 31
0.0
  0
LINE
  5
AC
  8
0
  6
CONTINUOUS
 62
     7
 10
52.3847
 20
38.1001
 30
0.0
 11
52.3847
 21
52.1008
 31
0.0
  0
LINE
  5
AD
  8
0
  6
CONTINUOUS
 62
     7
 10
33.6226
 20
38.1001
 30
0.0
 11
52.3847
 21
38.1001
 31
0.0
  0
LINE
  5
AE
  8
0
  6
CONTINUOUS
 62
     7
 10
33.6226
 20
52.1008
 30
0.0
 11
33.6226
 21
38.1001
 31
0.0
  0
LINE
  5
AF
  8
0
  6
CONTINUOUS
 62
     7
 10
64.5788
 20
52.1008
 30
0.0
 11
64.5788
 21
38.1001
 31
0.0
  0
LINE
  5
B0
  8
0
  6
CONTINUOUS
 62
     7
 10
78.5785
 20
52.1008
 30
0.0
 11
64.5788
 21
52.1008
 31
0.0
  0
LINE
  5
B1
  8
0
  6
CONTINUOUS
 62
     7
 10
78.5785
 20
38.1001
 30
0.0
 11
78.5785
 21
52.1008
 31
0.0
  0
LINE
  5
B2
  8
0
  6
CONTINUOUS
 62
     7
 10
64.5788
 20
38.1001
 30
0.0
 11
78.5785
 21
38.1001
 31
0.0
  0
LINE
  5
B3
  8
0
  6
CONTINUOUS
 62
     7
 10
30.9563
 20
14.0009
 30
0.0
 11
30.9563
 21
0.0
 31
0.0
  0
LINE
  5
B4
  8
0
  6
CONTINUOUS
 62
     7
 10
44.9556
 20
14.0009
 30
0.0
 11
30.9563
 21
14.0009
 31
0.0
  0
LINE
  5
B5
  8
0
  6
CONTINUOUS
 62
     7
 10
44.9556
 20
0.0
 30
0.0
 11
44.9556
 21
14.0009
 31
0.0
  0
LINE
  5
B6
  8
0
  6
CONTINUOUS
 62
     7
 10
30.9563
 20
0.0
 30
0.0
 11
44.9556
 21
0.0
 31
0.0
  0
LINE
  5
B7
  8
0
  6
CONTINUOUS
 62
     7
 10
0.0
 20
14.0009
 30
0.0
 11
0.0
 21
0.0
 31
0.0
  0
LINE
  5
B8
  8
0
  6
CONTINUOUS
 62
     7
 10
13.9994
 20
14.0009
 30
0.0
 11
0.0
 21
14.0009
 31
0.0
  0
LINE
  5
B9
  8
0
  6
CONTINUOUS
 62
     7
 10
13.9994
 20
0.0
 30
0.0
 11
13.9994
 21
14.0009
 31
0.0
  0
LINE
  5
BA
  8
0
  6
CONTINUOUS
 62
     7
 10
0.0
 20
0.0
 30
0.0
 11
13.9994
 21
0.0
 31
0.0
  0
LINE
  5
BB
  8
0
  6
CONTINUOUS
 62
     7
 10
149.2193
 20
24.2162
 30
0.0
 11
147.2713
 21
10.3518
 31
0.0
  0
LINE
  5
BC
  8
0
  6
CONTINUOUS
 62
     7
 10
163.0823
 20
22.2678
 30
0.0
 11
149.2193
 21
24.2162
 31
0.0
  0
LINE
  5
BD
  8
0
  6
CONTINUOUS
 62
     7
 10
161.1343
 20
8.4047
 30
0.0
 11
163.0823
 21
22.2678
 31
0.0
  0
LINE
  5
BE
  8
0
  6
CONTINUOUS
 62
     7
 10
147.2713
 20
10.3518
 30
0.0
 11
161.1343
 21
8.4047
 31
0.0
  0
LINE
  5
BF
  8
0
  6
CONTINUOUS
 62
     7
 10
130.3543
 20
26.8676
 30
0.0
 11
128.4053
 21
13.0032
 31
0.0
  0
LINE
  5
C0
  8
0
  6
CONTINUOUS
 62
     7
 10
144.2173
 20
24.9192
 30
0.0
 11
130.3543
 21
26.8676
 31
0.0
  0
LINE
  5
C1
  8
0
  6
CONTINUOUS
 62
     7
 10
142.2703
 20
11.056
 30
0.0
 11
144.2173
 21
24.9192
 31
0.0
  0
LINE
  5
C2
  8
0
  6
CONTINUOUS
 62
     7
 10
128.4053
 20
13.0032
 30
0.0
 11
142.2703
 21
11.056
 31
0.0
  0
LINE
  5
C3
  8
0
  6
CONTINUOUS
 62
     7
 10
111.4873
 20
29.5191
 30
0.0
 11
109.5403
 21
15.6545
 31
0.0
  0
LINE
  5
C4
  8
0
  6
CONTINUOUS
 62
     7
 10
125.3533
 20
27.5704
 30
0.0
 11
111.4873
 21
29.5191
 31
0.0
  0
LINE
  5
C5
  8
0
  6
CONTINUOUS
 62
     7
 10
123.4043
 20
13.706
 30
0.0
 11
125.3533
 21
27.5704
 31
0.0
  0
LINE
  5
C6
  8
0
  6
CONTINUOUS
 62
     7
 10
109.5403
 20
15.6545
 30
0.0
 11
123.4043
 21
13.706
 31
0.0
  0
LINE
  5
C7
  8
0
  6
CONTINUOUS
 62
     7
 10
92.6243
 20
32.1688
 30
0.0
 11
90.6763
 21
18.3059
 31
0.0
  0
LINE
  5
C8
  8
0
  6
CONTINUOUS
 62
     7
 10
106.4893
 20
30.2218
 30
0.0
 11
92.6243
 21
32.1688
 31
0.0
  0
LINE
  5
C9
  8
0
  6
CONTINUOUS
 62
     7
 10
104.5403
 20
16.3573
 30
0.0
 11
106.4893
 21
30.2218
 31
0.0
  0
LINE
  5
CA
  8
0
  6
CONTINUOUS
 62
     7
 10
90.6763
 20
18.3059
 30
0.0
 11
104.5403
 21
16.3573
 31
0.0
  0
LINE
  5
CB
  8
0
  6
CONTINUOUS
 62
     7
 10
71.4375
 20
33.0508
 30
0.0
 11
71.4375
 21
19.05
 31
0.0
  0
LINE
  5
CC
  8
0
  6
CONTINUOUS
 62
     7
 10
85.4368
 20
33.0508
 30
0.0
 11
71.4375
 21
33.0508
 31
0.0
  0
LINE
  5
CD
  8
0
  6
CONTINUOUS
 62
     7
 10
85.4368
 20
19.05
 30
0.0
 11
85.4368
 21
33.0508
 31
0.0
  0
LINE
  5
CE
  8
0
  6
CONTINUOUS
 62
     7
 10
71.4375
 20
19.05
 30
0.0
 11
85.4368
 21
19.05
 31
0.0
  0
LINE
  5
CF
  8
0
  6
CONTINUOUS
 62
     7
 10
0.0
 20
33.0508
 30
0.0
 11
0.0
 21
19.05
 31
0.0
  0
LINE
  5
D0
  8
0
  6
CONTINUOUS
 62
     7
 10
13.9994
 20
33.0508
 30
0.0
 11
0.0
 21
33.0508
 31
0.0
  0
LINE
  5
D1
  8
0
  6
CONTINUOUS
 62
     7
 10
13.9994
 20
19.05
 30
0.0
 11
13.9994
 21
33.0508
 31
0.0
  0
LINE
  5
D2
  8
0
  6
CONTINUOUS
 62
     7
 10
0.0
 20
19.05
 30
0.0
 11
13.9994
 21
19.05
 31
0.0
  0
ARC
  5
D3
  8
0
  6
CONTINUOUS
 62
     7
 10
124.6487376832
 20
-6.1795294689
 30
0.0
 40
0.5000000000000067
 50
172.0548331586
 51
261.9996258614
  0
LINE
  5
D4
  8
0
  6
CONTINUOUS
 62
     7
 10
124.2181420301
 20
-5.6475161475
 30
0.0
 11
124.15353728
 21
-6.110416803
 31
0.0
  0
LINE
  5
D5
  8
0
  6
CONTINUOUS
 62
     7
 10
108.145990651
 20
-3.3853691613
 30
0.0
 11
124.2181420301
 21
-5.6475161475
 31
0.0
  0
LINE
  5
D6
  8
0
  6
CONTINUOUS
 62
     7
 10
108.0805595527
 20
-3.8509135585
 30
0.0
 11
108.145990651
 21
-3.3853691613
 31
0.0
  0
ARC
  5
D7
  8
0
  6
CONTINUOUS
 62
     7
 10
107.5854259728
 20
-3.7813237749
 30
0.0
 40
0.5000000000000003
 50
261.9996258614
 51
351.9996258614
  0
LINE
  5
D8
  8
0
  6
CONTINUOUS
 62
     7
 10
101.0048296126
 20
-3.3613516995
 30
0.0
 11
107.5158361891
 21
-4.2764573548
 31
0.0
  0
ARC
  5
D9
  8
0
  6
CONTINUOUS
 62
     7
 10
101.0744193963
 20
-2.8662181195
 30
0.0
 40
0.5000000000000021
 50
171.9996258614
 51
261.9996258614
  0
LINE
  5
DA
  8
0
  6
CONTINUOUS
 62
     7
 10
100.644713435
 20
-2.3311086953
 30
0.0
 11
100.5792858163
 21
-2.7966283358
 31
0.0
  0
LINE
  5
DB
  8
0
  6
CONTINUOUS
 62
     7
 10
99.8158598222
 20
-2.2146153974
 30
0.0
 11
100.644713435
 21
-2.3311086953
 31
0.0
  0
LINE
  5
DC
  8
0
  6
CONTINUOUS
 62
     7
 10
101.7643
 20
11.6486
 30
0.0
 11
99.8158598222
 21
-2.2146153974
 31
0.0
  0
LINE
  5
DD
  8
0
  6
CONTINUOUS
 62
     7
 10
102.5931536129
 20
11.5321067021
 30
0.0
 11
101.7643
 21
11.6486
 31
0.0
  0
LINE
  5
DE
  8
0
  6
CONTINUOUS
 62
     7
 10
102.6585867988
 20
11.9976659534
 30
0.0
 11
102.5931536129
 21
11.5321067021
 31
0.0
  0
ARC
  5
DF
  8
0
  6
CONTINUOUS
 62
     7
 10
103.1537203787
 20
11.9280761697
 30
0.0
 40
0.5000000000000118
 50
81.9996258614
 51
171.9996258614
  0
LINE
  5
E0
  8
0
  6
CONTINUOUS
 62
     7
 10
109.7343167389
 20
11.5081040943
 30
0.0
 11
103.2233101624
 21
12.4232097496
 31
0.0
  0
ARC
  5
E1
  8
0
  6
CONTINUOUS
 62
     7
 10
109.6647269552
 20
11.0129705143
 30
0.0
 40
0.4999999999999959
 50
351.9996258614
 51
81.9996258614
  0
LINE
  5
E2
  8
0
  6
CONTINUOUS
 62
     7
 10
110.094429437
 20
10.4778363334
 30
0.0
 11
110.1598605352
 21
10.9433807306
 31
0.0
  0
LINE
  5
E3
  8
0
  6
CONTINUOUS
 62
     7
 10
126.1679487557
 20
8.2187283318
 30
0.0
 11
110.094429437
 21
10.4778363334
 31
0.0
  0
LINE
  5
E4
  8
0
  6
CONTINUOUS
 62
     7
 10
126.2333819416
 20
8.684287583
 30
0.0
 11
126.1679487557
 21
8.2187283318
 31
0.0
  0
ARC
  5
E5
  8
0
  6
CONTINUOUS
 62
     7
 10
126.7285155215
 20
8.6146977994
 30
0.0
 40
0.5000000000000036
 50
81.9996258614
 51
171.9996258614
  0
LINE
  5
E6
  8
0
  6
CONTINUOUS
 62
     7
 10
133.3091118817
 20
8.1947257239
 30
0.0
 11
126.7981053052
 21
9.1098313793
 31
0.0
  0
ARC
  5
E7
  8
0
  6
CONTINUOUS
 62
     7
 10
133.239522098
 20
7.699592144
 30
0.0
 40
0.5000000000000032
 50
351.9996258614
 51
81.9996258614
  0
LINE
  5
E8
  8
0
  6
CONTINUOUS
 62
     7
 10
133.6692245798
 20
7.1644579631
 30
0.0
 11
133.734655678
 21
7.6300023603
 31
0.0
  0
LINE
  5
E9
  8
0
  6
CONTINUOUS
 62
     7
 10
149.7422508526
 20
4.9054344053
 30
0.0
 11
133.6692245798
 21
7.1644579631
 31
0.0
  0
LINE
  5
EA
  8
0
  6
CONTINUOUS
 62
     7
 10
149.8076791672
 20
5.3709589972
 30
0.0
 11
149.7422508526
 21
4.9054344053
 31
0.0
  0
ARC
  5
EB
  8
0
  6
CONTINUOUS
 62
     7
 10
150.3028127472
 20
5.3013692135
 30
0.0
 40
0.4999999999999997
 50
81.9996258614
 51
171.9996258614
  0
LINE
  5
EC
  8
0
  6
CONTINUOUS
 62
     7
 10
156.8834091074
 20
4.8813971381
 30
0.0
 11
150.3724025308
 21
5.7965027935
 31
0.0
  0
ARC
  5
ED
  8
0
  6
CONTINUOUS
 62
     7
 10
156.8138193237
 20
4.3862635581
 30
0.0
 40
0.5000000000000259
 50
351.9996258614
 51
81.9996258614
  0
LINE
  5
EE
  8
0
  6
CONTINUOUS
 62
     7
 10
157.2435225013
 20
3.8511343285
 30
0.0
 11
157.3089529036
 21
4.3166737744
 31
0.0
  0
LINE
  5
EF
  8
0
  6
CONTINUOUS
 62
     7
 10
158.0728712478
 20
3.7345714409
 30
0.0
 11
157.2435225013
 21
3.8511343285
 31
0.0
  0
LINE
  5
F0
  8
0
  6
CONTINUOUS
 62
     7
 10
156.1244310699
 20
-10.1286439565
 30
0.0
 11
158.0728712478
 21
3.7345714409
 31
0.0
  0
LINE
  5
F1
  8
0
  6
CONTINUOUS
 62
     7
 10
155.2950823235
 20
-10.0120810688
 30
0.0
 11
156.1244310699
 21
-10.1286439565
 31
0.0
  0
LINE
  5
F2
  8
0
  6
CONTINUOUS
 62
     7
 10
155.2296519212
 20
-10.4776205147
 30
0.0
 11
155.2950823235
 21
-10.0120810688
 31
0.0
  0
ARC
  5
F3
  8
0
  6
CONTINUOUS
 62
     7
 10
154.7345183412
 20
-10.4080307311
 30
0.0
 40
0.5000000000000053
 50
261.9996258614
 51
351.9996258614
  0
LINE
  5
F4
  8
0
  6
CONTINUOUS
 62
     7
 10
148.153921981
 20
-9.9880586556
 30
0.0
 11
154.6649285575
 21
-10.903164311
 31
0.0
  0
ARC
  5
F5
  8
0
  6
CONTINUOUS
 62
     7
 10
148.2235117647
 20
-9.4929250757
 30
0.0
 40
0.5000000000000544
 50
171.9996258614
 51
261.9996258614
  0
LINE
  5
F6
  8
0
  6
CONTINUOUS
 62
     7
 10
147.7938120665
 20
-8.9577710894
 30
0.0
 11
147.7283781847
 21
-9.423335292
 31
0.0
  0
LINE
  5
F7
  8
0
  6
CONTINUOUS
 62
     7
 10
131.7207857938
 20
-6.6987475316
 30
0.0
 11
147.7938120665
 21
-8.9577710894
 31
0.0
  0
LINE
  5
F8
  8
0
  6
CONTINUOUS
 62
     7
 10
131.6553546955
 20
-7.1642919289
 30
0.0
 11
131.7207857938
 21
-6.6987475316
 31
0.0
  0
ARC
  5
F9
  8
0
  6
CONTINUOUS
 62
     7
 10
131.1602211156
 20
-7.0947021452
 30
0.0
 40
0.4999999999999997
 50
261.9996258614
 51
351.9996258614
  0
LINE
  5
FA
  8
0
  6
CONTINUOUS
 62
     7
 10
124.5791478996
 20
-6.6746630489
 30
0.0
 11
131.0906313319
 21
-7.5898357251
 31
0.0
  0
LINE
  5
FB
  8
0
  6
CONTINUOUS
 62
     7
 10
95.8633
 20
89.4266
 30
0.0
 11
93.9133
 21
75.5619
 31
0.0
  0
LINE
  5
FC
  8
0
  6
CONTINUOUS
 62
     7
 10
109.7263
 20
87.4776
 30
0.0
 11
95.8633
 21
89.4266
 31
0.0
  0
LINE
  5
FD
  8
0
  6
CONTINUOUS
 62
     7
 10
107.7783
 20
73.6149
 30
0.0
 11
109.7263
 21
87.4776
 31
0.0
  0
LINE
  5
FE
  8
0
  6
CONTINUOUS
 62
     7
 10
93.9133
 20
75.5619
 30
0.0
 11
107.7783
 21
73.6149
 31
0.0
  0
LINE
  5
FF
  8
0
  6
CONTINUOUS
 62
     7
 10
55.4345
 20
90.2006
 30
0.0
 11
55.4345
 21
76.2001
 31
0.0
  0
LINE
  5
100
  8
0
  6
CONTINUOUS
 62
     7
 10
69.4352
 20
90.2006
 30
0.0
 11
55.4345
 21
90.2006
 31
0.0
  0
LINE
  5
101
  8
0
  6
CONTINUOUS
 62
     7
 10
69.4352
 20
76.2001
 30
0.0
 11
69.4352
 21
90.2006
 31
0.0
  0
LINE
  5
102
  8
0
  6
CONTINUOUS
 62
     7
 10
55.4345
 20
76.2001
 30
0.0
 11
69.4352
 21
76.2001
 31
0.0
  0
LINE
  5
103
  8
0
  6
CONTINUOUS
 62
     7
 10
36.3845
 20
90.2006
 30
0.0
 11
36.3845
 21
76.2001
 31
0.0
  0
LINE
  5
104
  8
0
  6
CONTINUOUS
 62
     7
 10
50.3852
 20
90.2006
 30
0.0
 11
36.3845
 21
90.2006
 31
0.0
  0
LINE
  5
105
  8
0
  6
CONTINUOUS
 62
     7
 10
50.3852
 20
76.2001
 30
0.0
 11
50.3852
 21
90.2006
 31
0.0
  0
LINE
  5
106
  8
0
  6
CONTINUOUS
 62
     7
 10
36.3845
 20
76.2001
 30
0.0
 11
50.3852
 21
76.2001
 31
0.0
  0
LINE
  5
107
  8
0
  6
CONTINUOUS
 62
     7
 10
76.998
 20
92.0776
 30
0.0
 11
75.0493
 21
78.2148
 31
0.0
  0
LINE
  5
108
  8
0
  6
CONTINUOUS
 62
     7
 10
90.8623
 20
90.1296
 30
0.0
 11
76.998
 21
92.0776
 31
0.0
  0
LINE
  5
109
  8
0
  6
CONTINUOUS
 62
     7
 10
88.9133
 20
76.2646
 30
0.0
 11
90.8623
 21
90.1296
 31
0.0
  0
LINE
  5
10A
  8
0
  6
CONTINUOUS
 62
     7
 10
75.0493
 20
78.2148
 30
0.0
 11
88.9133
 21
76.2646
 31
0.0
  0
LINE
  5
10B
  8
0
  6
CONTINUOUS
 62
     7
 10
121.5083
 20
66.5855
 30
0.0
 11
119.5603
 21
52.7209
 31
0.0
  0
LINE
  5
10C
  8
0
  6
CONTINUOUS
 62
     7
 10
135.3713
 20
64.6371
 30
0.0
 11
121.5083
 21
66.5855
 31
0.0
  0
LINE
  5
10D
  8
0
  6
CONTINUOUS
 62
     7
 10
133.4243
 20
50.7726
 30
0.0
 11
135.3713
 21
64.6371
 31
0.0
  0
LINE
  5
10E
  8
0
  6
CONTINUOUS
 62
     7
 10
119.5603
 20
52.7209
 30
0.0
 11
133.4243
 21
50.7726
 31
0.0
  0
LINE
  5
10F
  8
0
  6
CONTINUOUS
 62
     7
 10
102.6433
 20
69.2369
 30
0.0
 11
100.6943
 21
55.3724
 31
0.0
  0
LINE
  5
110
  8
0
  6
CONTINUOUS
 62
     7
 10
116.5073
 20
67.2868
 30
0.0
 11
102.6433
 21
69.2369
 31
0.0
  0
LINE
  5
111
  8
0
  6
CONTINUOUS
 62
     7
 10
114.5593
 20
53.4237
 30
0.0
 11
116.5073
 21
67.2868
 31
0.0
  0
LINE
  5
112
  8
0
  6
CONTINUOUS
 62
     7
 10
100.6943
 20
55.3724
 30
0.0
 11
114.5593
 21
53.4237
 31
0.0
  0
LINE
  5
113
  8
0
  6
CONTINUOUS
 62
     7
 10
83.7791
 20
71.8867
 30
0.0
 11
81.8307
 21
58.0235
 31
0.0
  0
LINE
  5
114
  8
0
  6
CONTINUOUS
 62
     7
 10
97.6423
 20
69.9397
 30
0.0
 11
83.7791
 21
71.8867
 31
0.0
  0
LINE
  5
115
  8
0
  6
CONTINUOUS
 62
     7
 10
95.6953
 20
56.0752
 30
0.0
 11
97.6423
 21
69.9397
 31
0.0
  0
LINE
  5
116
  8
0
  6
CONTINUOUS
 62
     7
 10
81.8307
 20
58.0235
 30
0.0
 11
95.6953
 21
56.0752
 31
0.0
  0
LINE
  5
117
  8
0
  6
CONTINUOUS
 62
     7
 10
62.483
 20
71.1508
 30
0.0
 11
62.483
 21
57.1501
 31
0.0
  0
LINE
  5
118
  8
0
  6
CONTINUOUS
 62
     7
 10
76.4826
 20
71.1508
 30
0.0
 11
62.483
 21
71.1508
 31
0.0
  0
LINE
  5
119
  8
0
  6
CONTINUOUS
 62
     7
 10
76.4826
 20
57.1501
 30
0.0
 11
76.4826
 21
71.1508
 31
0.0
  0
LINE
  5
11A
  8
0
  6
CONTINUOUS
 62
     7
 10
62.483
 20
57.1501
 30
0.0
 11
76.4826
 21
57.1501
 31
0.0
  0
LINE
  5
11B
  8
0
  6
CONTINUOUS
 62
     7
 10
114.7273
 20
86.7746
 30
0.0
 11
112.7783
 21
72.9122
 31
0.0
  0
LINE
  5
11C
  8
0
  6
CONTINUOUS
 62
     7
 10
128.5903
 20
84.8265
 30
0.0
 11
114.7273
 21
86.7746
 31
0.0
  0
LINE
  5
11D
  8
0
  6
CONTINUOUS
 62
     7
 10
126.6433
 20
70.9634
 30
0.0
 11
128.5903
 21
84.8265
 31
0.0
  0
LINE
  5
11E
  8
0
  6
CONTINUOUS
 62
     7
 10
112.7783
 20
72.9122
 30
0.0
 11
126.6433
 21
70.9634
 31
0.0
  0
LINE
  5
11F
  8
0
  6
CONTINUOUS
 62
     7
 10
133.5913
 20
84.1252
 30
0.0
 11
131.6443
 21
70.2607
 31
0.0
  0
LINE
  5
120
  8
0
  6
CONTINUOUS
 62
     7
 10
147.4553
 20
82.1751
 30
0.0
 11
133.5913
 21
84.1252
 31
0.0
  0
LINE
  5
121
  8
0
  6
CONTINUOUS
 62
     7
 10
145.5073
 20
68.312
 30
0.0
 11
147.4553
 21
82.1751
 31
0.0
  0
LINE
  5
122
  8
0
  6
CONTINUOUS
 62
     7
 10
131.6443
 20
70.2607
 30
0.0
 11
145.5073
 21
68.312
 31
0.0
  0
LINE
  5
123
  8
0
  6
CONTINUOUS
 62
     7
 10
152.4563
 20
81.4723
 30
0.0
 11
150.5083
 21
67.6092
 31
0.0
  0
LINE
  5
124
  8
0
  6
CONTINUOUS
 62
     7
 10
166.3193
 20
79.5239
 30
0.0
 11
152.4563
 21
81.4723
 31
0.0
  0
LINE
  5
125
  8
0
  6
CONTINUOUS
 62
     7
 10
164.3723
 20
65.6608
 30
0.0
 11
166.3193
 21
79.5239
 31
0.0
  0
LINE
  5
126
  8
0
  6
CONTINUOUS
 62
     7
 10
150.5083
 20
67.6092
 30
0.0
 11
164.3723
 21
65.6608
 31
0.0
  0
LINE
  5
127
  8
0
  6
CONTINUOUS
 62
     7
 10
38.6705
 20
71.1508
 30
0.0
 11
38.6705
 21
57.1501
 31
0.0
  0
LINE
  5
128
  8
0
  6
CONTINUOUS
 62
     7
 10
52.6712
 20
71.1508
 30
0.0
 11
38.6705
 21
71.1508
 31
0.0
  0
LINE
  5
129
  8
0
  6
CONTINUOUS
 62
     7
 10
52.6712
 20
57.1501
 30
0.0
 11
52.6712
 21
71.1508
 31
0.0
  0
LINE
  5
12A
  8
0
  6
CONTINUOUS
 62
     7
 10
38.6705
 20
57.1501
 30
0.0
 11
52.6712
 21
57.1501
 31
0.0
  0
LINE
  5
12B
  8
0
  6
CONTINUOUS
 62
     7
 10
54.7674
 20
14.0009
 30
0.0
 11
54.7674
 21
0.0
 31
0.0
  0
LINE
  5
12C
  8
0
  6
CONTINUOUS
 62
     7
 10
68.7681
 20
14.0009
 30
0.0
 11
54.7674
 21
14.0009
 31
0.0
  0
LINE
  5
12D
  8
0
  6
CONTINUOUS
 62
     7
 10
68.7681
 20
0.0
 30
0.0
 11
68.7681
 21
14.0009
 31
0.0
  0
LINE
  5
12E
  8
0
  6
CONTINUOUS
 62
     7
 10
54.7674
 20
0.0
 30
0.0
 11
68.7681
 21
0.0
 31
0.0
  0
CIRCLE
  5
12F
  8
0
  6
CONTINUOUS
 62
     7
 10
150.9998323148
 20
89.25375562
 30
0.0
 40
1.800000000000011
  0
CIRCLE
  5
130
  8
0
  6
CONTINUOUS
 62
     7
 10
-7.5
 20
35.57545
 30
0.0
 40
1.800000000000004
  0
CIRCLE
  5
131
  8
0
  6
CONTINUOUS
 62
     7
 10
141.0772627588
 20
-15.5807081386
 30
0.0
 40
1.800000000000006
  0
CIRCLE
  5
132
  8
0
  6
CONTINUOUS
 62
     7
 10
22.47785
 20
-7.5
 30
0.0
 40
1.799999999999999
  0
CIRCLE
  5
133
  8
0
  6
CONTINUOUS
 62
     7
 10
52.90985
 20
97.7006
 30
0.0
 40
1.799999999999997
  0
LINE
  5
134
  8
0
  6
CONTINUOUS
 62
     7
 10
136.5514673383
 20
-15.4496516159
 30
0.0
 11
137.0109338131
 21
-12.1799143816
 31
0.0
  0
ARC
  5
135
  8
0
  6
CONTINUOUS
 62
     7
 10
139.5222796989
 20
-15.8671128933
 30
0.0
 40
3.000000000000009
 50
172.0011190937
 51
262.0011190937
  0
LINE
  5
136
  8
0
  6
CONTINUOUS
 62
     7
 10
142.075630782
 20
-19.2553865314
 30
0.0
 11
139.1048184214
 21
-18.8379252539
 31
0.0
  0
ARC
  5
137
  8
0
  6
CONTINUOUS
 62
     7
 10
142.4930920595
 20
-16.2845741708
 30
0.0
 40
3.000000000000009
 50
262.0011190937
 51
352.0011190937
  0
LINE
  5
138
  8
0
  6
CONTINUOUS
 62
     7
 10
145.9228527795
 20
-13.435985319
 30
0.0
 11
145.4639044201
 21
-16.7020354482
 31
0.0
  0
ARC
  5
139
  8
0
  6
CONTINUOUS
 62
     7
 10
146.9131235664
 20
-13.5751390782
 30
0.0
 40
1.000000000000003
 50
81.9817253578
 51
172.0011190937
  0
LINE
  5
13A
  8
0
  6
CONTINUOUS
 62
     7
 10
169.2491780803
 20
-15.7116591156
 30
0.0
 11
147.0526125089
 21
-12.5849154494
 31
0.0
  0
ARC
  5
13B
  8
0
  6
CONTINUOUS
 62
     7
 10
169.3886670228
 20
-14.7214354869
 30
0.0
 40
1.0
 50
261.9817253578
 51
0.0
  0
LINE
  5
13C
  8
0
  6
CONTINUOUS
 62
     7
 10
170.3886670228
 20
81.8227947221
 30
0.0
 11
170.3886670228
 21
-14.7214354869
 31
0.0
  0
ARC
  5
13D
  8
0
  6
CONTINUOUS
 62
     7
 10
169.3886670228
 20
81.8227947221
 30
0.0
 40
1.0
 50
360.0
 51
82.0017502316
  0
LINE
  5
13E
  8
0
  6
CONTINUOUS
 62
     7
 10
155.9175614858
 20
84.7254387442
 30
0.0
 11
169.5278098737
 21
82.8130670417
 31
0.0
  0
ARC
  5
13F
  8
0
  6
CONTINUOUS
 62
     7
 10
156.0567043367
 20
85.7157110638
 30
0.0
 40
1.000000000000011
 50
172.0012180575
 51
262.0017502316
  0
LINE
  5
140
  8
0
  6
CONTINUOUS
 62
     7
 10
155.5256279617
 20
89.1227069144
 30
0.0
 11
155.0664333095
 21
85.8548631125
 31
0.0
  0
ARC
  5
141
  8
0
  6
CONTINUOUS
 62
     7
 10
152.55481488
 20
89.5401630606
 30
0.0
 40
3.0
 50
352.0012180575
 51
82.0012180575
  0
LINE
  5
142
  8
0
  6
CONTINUOUS
 62
     7
 10
150.0014579445
 20
92.9284322883
 30
0.0
 11
152.9722710261
 21
92.5109761422
 31
0.0
  0
ARC
  5
143
  8
0
  6
CONTINUOUS
 62
     7
 10
149.5840017984
 20
89.9576192067
 30
0.0
 40
3.000000000000001
 50
82.0012180575
 51
172.0012180575
  0
LINE
  5
144
  8
0
  6
CONTINUOUS
 62
     7
 10
146.1539798474
 20
87.1071303748
 30
0.0
 11
146.6131887167
 21
90.3750753528
 31
0.0
  0
ARC
  5
145
  8
0
  6
CONTINUOUS
 62
     7
 10
145.1637088202
 20
87.2462824235
 30
0.0
 40
0.9999999999999968
 50
262.0017502316
 51
352.0012180575
  0
LINE
  5
146
  8
0
  6
CONTINUOUS
 62
     7
 10
74.8391416597
 20
96.1177419069
 30
0.0
 11
145.0245659693
 21
86.2560101039
 31
0.0
  0
ARC
  5
147
  8
0
  6
CONTINUOUS
 62
     7
 10
74.6999988088
 20
95.1274695873
 30
0.0
 40
1.000000000000009
 50
82.0017502316
 51
172.0017502316
  0
LINE
  5
148
  8
0
  6
CONTINUOUS
 62
     7
 10
73.6387472791
 20
94.7614571491
 30
0.0
 11
73.7097264892
 21
95.2666124382
 31
0.0
  0
ARC
  5
149
  8
0
  6
CONTINUOUS
 62
     7
 10
72.6484749594
 20
94.9006
 30
0.0
 40
1.0
 50
270.0
 51
352.0017502316
  0
LINE
  5
14A
  8
0
  6
CONTINUOUS
 62
     7
 10
58.40985
 20
93.9006
 30
0.0
 11
72.6484749594
 21
93.9006
 31
0.0
  0
ARC
  5
14B
  8
0
  6
CONTINUOUS
 62
     7
 10
58.40985
 20
94.9006
 30
0.0
 40
1.0
 50
180.0
 51
270.0
  0
LINE
  5
14C
  8
0
  6
CONTINUOUS
 62
     7
 10
57.40985
 20
98.2006
 30
0.0
 11
57.40985
 21
94.9006
 31
0.0
  0
ARC
  5
14D
  8
0
  6
CONTINUOUS
 62
     7
 10
54.40985
 20
98.2006
 30
0.0
 40
3.000000000000014
 50
0.0
 51
90.0
  0
LINE
  5
14E
  8
0
  6
CONTINUOUS
 62
     7
 10
51.40985
 20
101.2006
 30
0.0
 11
54.40985
 21
101.2006
 31
0.0
  0
ARC
  5
14F
  8
0
  6
CONTINUOUS
 62
     7
 10
51.40985
 20
98.2006
 30
0.0
 40
3.000000000000014
 50
90.0
 51
180.0
  0
LINE
  5
150
  8
0
  6
CONTINUOUS
 62
     7
 10
48.40985
 20
94.9006
 30
0.0
 11
48.40985
 21
98.2006
 31
0.0
  0
ARC
  5
151
  8
0
  6
CONTINUOUS
 62
     7
 10
47.40985
 20
94.9006
 30
0.0
 40
1.0
 50
270.0
 51
0.0
  0
LINE
  5
152
  8
0
  6
CONTINUOUS
 62
     7
 10
25.8748
 20
93.9006
 30
0.0
 11
47.40985
 21
93.9006
 31
0.0
  0
ARC
  5
153
  8
0
  6
CONTINUOUS
 62
     7
 10
25.8748
 20
92.9006
 30
0.0
 40
1.0
 50
90.0
 51
180.0
  0
LINE
  5
154
  8
0
  6
CONTINUOUS
 62
     7
 10
24.8748
 20
57.0006
 30
0.0
 11
24.8748
 21
92.9006
 31
0.0
  0
ARC
  5
155
  8
0
  6
CONTINUOUS
 62
     7
 10
23.8748
 20
57.0006
 30
0.0
 40
1.0
 50
270.0
 51
0.0
  0
LINE
  5
156
  8
0
  6
CONTINUOUS
 62
     7
 10
-2.7
 20
56.0006
 30
0.0
 11
23.8748
 21
56.0006
 31
0.0
  0
ARC
  5
157
  8
0
  6
CONTINUOUS
 62
     7
 10
-2.7
 20
55.0006
 30
0.0
 40
1.000000000000001
 50
90.0
 51
180.0
  0
LINE
  5
158
  8
0
  6
CONTINUOUS
 62
     7
 10
-3.7
 20
41.07545
 30
0.0
 11
-3.7
 21
55.0006
 31
0.0
  0
ARC
  5
159
  8
0
  6
CONTINUOUS
 62
     7
 10
-4.7
 20
41.07545
 30
0.0
 40
1.0
 50
270.0
 51
0.0
  0
LINE
  5
15A
  8
0
  6
CONTINUOUS
 62
     7
 10
-8.0
 20
40.07545
 30
0.0
 11
-4.7
 21
40.07545
 31
0.0
  0
ARC
  5
15B
  8
0
  6
CONTINUOUS
 62
     7
 10
-8.0
 20
37.07545
 30
0.0
 40
3.000000000000002
 50
90.0
 51
180.0
  0
LINE
  5
15C
  8
0
  6
CONTINUOUS
 62
     7
 10
-11.0
 20
34.07545
 30
0.0
 11
-11.0
 21
37.07545
 31
0.0
  0
ARC
  5
15D
  8
0
  6
CONTINUOUS
 62
     7
 10
-8.0
 20
34.07545
 30
0.0
 40
3.000000000000007
 50
180.0
 51
270.0
  0
LINE
  5
15E
  8
0
  6
CONTINUOUS
 62
     7
 10
-4.7
 20
31.07545
 30
0.0
 11
-8.0
 21
31.07545
 31
0.0
  0
ARC
  5
15F
  8
0
  6
CONTINUOUS
 62
     7
 10
-4.7
 20
30.07545
 30
0.0
 40
1.000000000000001
 50
0.0
 51
90.0
  0
LINE
  5
160
  8
0
  6
CONTINUOUS
 62
     7
 10
-3.7
 20
-2.7
 30
0.0
 11
-3.7
 21
30.07545
 31
0.0
  0
ARC
  5
161
  8
0
  6
CONTINUOUS
 62
     7
 10
-2.7
 20
-2.7
 30
0.0
 40
1.0
 50
180.0
 51
270.0
  0
LINE
  5
162
  8
0
  6
CONTINUOUS
 62
     7
 10
16.97785
 20
-3.7
 30
0.0
 11
-2.7
 21
-3.7
 31
0.0
  0
ARC
  5
163
  8
0
  6
CONTINUOUS
 62
     7
 10
16.97785
 20
-4.7
 30
0.0
 40
1.0
 50
0.0
 51
90.0
  0
LINE
  5
164
  8
0
  6
CONTINUOUS
 62
     7
 10
17.97785
 20
-8.0
 30
0.0
 11
17.97785
 21
-4.7
 31
0.0
  0
ARC
  5
165
  8
0
  6
CONTINUOUS
 62
     7
 10
20.97785
 20
-8.0
 30
0.0
 40
3.0
 50
180.0
 51
270.0
  0
LINE
  5
166
  8
0
  6
CONTINUOUS
 62
     7
 10
23.97785
 20
-11.0
 30
0.0
 11
20.97785
 21
-11.0
 31
0.0
  0
ARC
  5
167
  8
0
  6
CONTINUOUS
 62
     7
 10
23.97785
 20
-8.0
 30
0.0
 40
3.0
 50
270.0
 51
0.0
  0
LINE
  5
168
  8
0
  6
CONTINUOUS
 62
     7
 10
26.97785
 20
-4.7
 30
0.0
 11
26.97785
 21
-8.0
 31
0.0
  0
ARC
  5
169
  8
0
  6
CONTINUOUS
 62
     7
 10
27.97785
 20
-4.7
 30
0.0
 40
1.000000000000004
 50
90.0
 51
180.0
  0
LINE
  5
16A
  8
0
  6
CONTINUOUS
 62
     7
 10
83.909044072
 20
-3.7
 30
0.0
 11
27.97785
 21
-3.7
 31
0.0
  0
ARC
  5
16B
  8
0
  6
CONTINUOUS
 62
     7
 10
83.909044072
 20
-4.7
 30
0.0
 40
1.000000000000001
 50
81.9817253578
 51
90.0
  0
LINE
  5
16C
  8
0
  6
CONTINUOUS
 62
     7
 10
136.1601519688
 20
-11.0505369937
 30
0.0
 11
84.0485330145
 21
-3.7097763713
 31
0.0
  0
ARC
  5
16D
  8
0
  6
CONTINUOUS
 62
     7
 10
136.0206630263
 20
-12.0407606225
 30
0.0
 40
1.000000000000002
 50
352.0011190937
 51
81.9817253578
  0
ENDSEC
  0
EOF
